<mxfile host="app.diagrams.net" modified="2021-05-20T08:13:17.778Z" agent="5.0 (Windows NT 10.0; Win64; x64) AppleWebKit/537.36 (KHTML, like Gecko) Chrome/89.0.4389.114 Safari/537.36" etag="KcQo-V4yO3h7VLfyfZLx" version="14.6.13" type="github">
  <diagram name="Page-1" id="ad52d381-51e7-2e0d-a935-2d0ddd2fd229">
    <mxGraphModel dx="2830" dy="1670" grid="1" gridSize="10" guides="1" tooltips="1" connect="1" arrows="1" fold="1" page="1" pageScale="1" pageWidth="1100" pageHeight="850" background="#ffffff" math="0" shadow="0">
      <root>
        <mxCell id="0" />
        <mxCell id="1" parent="0" />
        <mxCell id="2c924340bb9dbf6c-2" value="&lt;p class=&quot;MsoNormal&quot;&gt;&lt;b&gt;&lt;span&gt;&lt;font face=&quot;Calibri&quot; style=&quot;font-size: 14px&quot;&gt;Partition-based online clustering&lt;/font&gt;&lt;/span&gt;&lt;/b&gt;&lt;/p&gt;" style="ellipse;whiteSpace=wrap;html=1;rounded=1;shadow=1;comic=0;labelBackgroundColor=none;strokeWidth=2;fontFamily=Verdana;fontSize=12;align=center;" parent="1" vertex="1">
          <mxGeometry x="260" y="-490" width="120" height="80" as="geometry" />
        </mxCell>
        <mxCell id="2c924340bb9dbf6c-3" value="&lt;p class=&quot;MsoNormal&quot; align=&quot;justify&quot; style=&quot;text-align: justify&quot;&gt;&lt;b&gt;&lt;font face=&quot;Calibri&quot; style=&quot;font-size: 14px&quot;&gt;Hierarchical&amp;nbsp;&lt;/font&gt;&lt;/b&gt;&lt;/p&gt;&lt;p class=&quot;MsoNormal&quot; align=&quot;justify&quot; style=&quot;text-align: justify&quot;&gt;&lt;b&gt;&lt;font face=&quot;Calibri&quot; style=&quot;font-size: 14px&quot;&gt;clustering method&lt;/font&gt;&lt;/b&gt;&lt;/p&gt;" style="ellipse;whiteSpace=wrap;html=1;rounded=1;shadow=1;comic=0;labelBackgroundColor=none;strokeWidth=2;fontFamily=Verdana;fontSize=12;align=center;" parent="1" vertex="1">
          <mxGeometry x="565" y="-610" width="135" height="80" as="geometry" />
        </mxCell>
        <mxCell id="2c924340bb9dbf6c-4" value="&lt;b&gt;&lt;font style=&quot;font-size: 15px&quot;&gt;online clustering&lt;/font&gt;&lt;/b&gt;" style="ellipse;whiteSpace=wrap;html=1;rounded=1;shadow=1;comic=0;labelBackgroundColor=none;strokeWidth=2;fontFamily=Verdana;fontSize=12;align=center;" parent="1" vertex="1">
          <mxGeometry x="450" y="-340" width="120" height="120" as="geometry" />
        </mxCell>
        <mxCell id="2c924340bb9dbf6c-5" value="&lt;span&gt;&lt;b&gt;&lt;font style=&quot;font-size: 12px&quot;&gt;High Dimensional clustering method&lt;/font&gt;&lt;/b&gt;&lt;/span&gt;" style="ellipse;whiteSpace=wrap;html=1;rounded=1;shadow=1;comic=0;labelBackgroundColor=none;strokeWidth=2;fontFamily=Verdana;fontSize=12;align=center;" parent="1" vertex="1">
          <mxGeometry x="660" y="-500" width="120" height="80" as="geometry" />
        </mxCell>
        <mxCell id="2c924340bb9dbf6c-7" value="&lt;div style=&quot;font-size: 14px&quot;&gt;&lt;span style=&quot;font-family: &amp;#34;calibri&amp;#34;&quot;&gt;&lt;font style=&quot;font-size: 14px&quot;&gt;&lt;b&gt;Density&lt;/b&gt;&lt;/font&gt;&lt;/span&gt;&lt;/div&gt;&lt;div style=&quot;font-size: 14px&quot;&gt;&lt;span style=&quot;font-family: &amp;#34;calibri&amp;#34;&quot;&gt;&lt;font style=&quot;font-size: 14px&quot;&gt;&lt;b&gt;based online clustering&amp;nbsp;&lt;/b&gt;&lt;/font&gt;&lt;/span&gt;&lt;/div&gt;" style="ellipse;whiteSpace=wrap;html=1;rounded=1;shadow=1;comic=0;labelBackgroundColor=none;strokeWidth=2;fontFamily=Verdana;fontSize=12;align=center;" parent="1" vertex="1">
          <mxGeometry x="550" y="-190" width="120" height="80" as="geometry" />
        </mxCell>
        <mxCell id="2c924340bb9dbf6c-10" value="&lt;p class=&quot;MsoNormal&quot;&gt;&lt;b&gt;&lt;i&gt;&lt;span style=&quot;font-size: 14pt&quot;&gt;&lt;font face=&quot;Calibri&quot;&gt;STREAM&lt;/font&gt;&lt;/span&gt;&lt;/i&gt;&lt;/b&gt;&lt;/p&gt;" style="whiteSpace=wrap;html=1;rounded=1;shadow=1;comic=0;labelBackgroundColor=none;strokeWidth=2;fontFamily=Verdana;fontSize=12;align=center;arcSize=50;" parent="1" vertex="1">
          <mxGeometry x="120" y="-530" width="100" height="20" as="geometry" />
        </mxCell>
        <mxCell id="2c924340bb9dbf6c-11" value="&lt;p class=&quot;MsoNormal&quot;&gt;&lt;span style=&quot;font-size: 12.0000pt&quot;&gt;&lt;font face=&quot;Calibri&quot;&gt;&lt;b&gt;CluStream&lt;/b&gt;&lt;/font&gt;&lt;/span&gt;&lt;/p&gt;" style="whiteSpace=wrap;html=1;rounded=1;shadow=1;comic=0;labelBackgroundColor=none;strokeWidth=2;fontFamily=Verdana;fontSize=12;align=center;arcSize=50;" parent="1" vertex="1">
          <mxGeometry x="680" y="-675" width="100" height="20" as="geometry" />
        </mxCell>
        <mxCell id="2c924340bb9dbf6c-14" value="&lt;p class=&quot;MsoNormal&quot;&gt;&lt;span style=&quot;font-family: &amp;#34;calibri&amp;#34; ; font-size: 12.0000pt&quot;&gt;&lt;b&gt;REPSTREAM&lt;/b&gt;&lt;/span&gt;&lt;/p&gt;" style="whiteSpace=wrap;html=1;rounded=1;shadow=1;comic=0;labelBackgroundColor=none;strokeWidth=2;fontFamily=Verdana;fontSize=12;align=center;arcSize=50;" parent="1" vertex="1">
          <mxGeometry x="420" y="-700" width="100" height="20" as="geometry" />
        </mxCell>
        <mxCell id="2c924340bb9dbf6c-15" value="&lt;p class=&quot;MsoNormal&quot;&gt;&lt;b&gt;&lt;span style=&quot;font-family: &amp;#34;calibri&amp;#34; ; font-size: 12.0000pt&quot;&gt;ClusTree&lt;/span&gt;&lt;span style=&quot;font-size: 12.0000pt&quot;&gt;&amp;nbsp;&lt;/span&gt;&lt;/b&gt;&lt;/p&gt;" style="whiteSpace=wrap;html=1;rounded=1;shadow=1;comic=0;labelBackgroundColor=none;strokeWidth=2;fontFamily=Verdana;fontSize=12;align=center;arcSize=50;" parent="1" vertex="1">
          <mxGeometry x="410" y="-610" width="100" height="20" as="geometry" />
        </mxCell>
        <mxCell id="2c924340bb9dbf6c-31" value="" style="edgeStyle=none;rounded=1;html=1;labelBackgroundColor=none;startArrow=none;startFill=0;startSize=5;endArrow=classicThin;endFill=1;endSize=5;jettySize=auto;orthogonalLoop=1;strokeColor=#B3B3B3;strokeWidth=1;fontFamily=Verdana;fontSize=12" parent="1" source="2c924340bb9dbf6c-4" target="2c924340bb9dbf6c-2" edge="1">
          <mxGeometry relative="1" as="geometry" />
        </mxCell>
        <mxCell id="2c924340bb9dbf6c-32" value="" style="edgeStyle=none;rounded=1;html=1;labelBackgroundColor=none;startArrow=none;startFill=0;startSize=5;endArrow=classicThin;endFill=1;endSize=5;jettySize=auto;orthogonalLoop=1;strokeColor=#B3B3B3;strokeWidth=1;fontFamily=Verdana;fontSize=12" parent="1" source="2c924340bb9dbf6c-4" target="2c924340bb9dbf6c-3" edge="1">
          <mxGeometry relative="1" as="geometry">
            <Array as="points" />
          </mxGeometry>
        </mxCell>
        <mxCell id="2c924340bb9dbf6c-33" value="" style="edgeStyle=none;rounded=1;html=1;labelBackgroundColor=none;startArrow=none;startFill=0;startSize=5;endArrow=classicThin;endFill=1;endSize=5;jettySize=auto;orthogonalLoop=1;strokeColor=#B3B3B3;strokeWidth=1;fontFamily=Verdana;fontSize=12" parent="1" source="2c924340bb9dbf6c-4" target="2c924340bb9dbf6c-5" edge="1">
          <mxGeometry relative="1" as="geometry" />
        </mxCell>
        <mxCell id="2c924340bb9dbf6c-35" value="" style="edgeStyle=none;rounded=1;html=1;labelBackgroundColor=none;startArrow=none;startFill=0;startSize=5;endArrow=classicThin;endFill=1;endSize=5;jettySize=auto;orthogonalLoop=1;strokeColor=#B3B3B3;strokeWidth=1;fontFamily=Verdana;fontSize=12;exitX=1;exitY=1;exitDx=0;exitDy=0;" parent="1" source="2c924340bb9dbf6c-4" target="2c924340bb9dbf6c-7" edge="1">
          <mxGeometry x="-0.1021" y="-13" relative="1" as="geometry">
            <mxPoint as="offset" />
          </mxGeometry>
        </mxCell>
        <mxCell id="2c924340bb9dbf6c-44" value="" style="edgeStyle=none;rounded=1;html=1;labelBackgroundColor=none;startArrow=none;startFill=0;startSize=5;endArrow=classicThin;endFill=1;endSize=5;jettySize=auto;orthogonalLoop=1;strokeColor=#B3B3B3;strokeWidth=1;fontFamily=Verdana;fontSize=12" parent="1" source="2c924340bb9dbf6c-3" target="2c924340bb9dbf6c-15" edge="1">
          <mxGeometry relative="1" as="geometry" />
        </mxCell>
        <mxCell id="2c924340bb9dbf6c-45" value="" style="edgeStyle=none;rounded=1;html=1;labelBackgroundColor=none;startArrow=none;startFill=0;startSize=5;endArrow=classicThin;endFill=1;endSize=5;jettySize=auto;orthogonalLoop=1;strokeColor=#B3B3B3;strokeWidth=1;fontFamily=Verdana;fontSize=12" parent="1" source="2c924340bb9dbf6c-3" target="2c924340bb9dbf6c-14" edge="1">
          <mxGeometry relative="1" as="geometry" />
        </mxCell>
        <mxCell id="2c924340bb9dbf6c-46" value="" style="edgeStyle=none;rounded=1;html=1;labelBackgroundColor=none;startArrow=none;startFill=0;startSize=5;endArrow=classicThin;endFill=1;endSize=5;jettySize=auto;orthogonalLoop=1;strokeColor=#B3B3B3;strokeWidth=1;fontFamily=Verdana;fontSize=12" parent="1" source="2c924340bb9dbf6c-3" target="2c924340bb9dbf6c-11" edge="1">
          <mxGeometry relative="1" as="geometry" />
        </mxCell>
        <mxCell id="2c924340bb9dbf6c-58" value="&lt;p class=&quot;MsoNormal&quot;&gt;&lt;span style=&quot;font-family: &amp;#34;calibri&amp;#34; ; font-size: 12.0000pt&quot;&gt;&lt;b&gt;HPSTREAM&amp;nbsp;&lt;/b&gt;&lt;/span&gt;&lt;/p&gt;" style="whiteSpace=wrap;html=1;rounded=1;shadow=1;comic=0;labelBackgroundColor=none;strokeWidth=2;fontFamily=Verdana;fontSize=12;align=center;arcSize=50;" parent="1" vertex="1">
          <mxGeometry x="890" y="-570" width="100" height="30" as="geometry" />
        </mxCell>
        <mxCell id="2c924340bb9dbf6c-59" value="&lt;div&gt;&lt;span style=&quot;font-family: &amp;#34;calibri&amp;#34;&quot;&gt;&lt;font style=&quot;font-size: 15px&quot;&gt;Den-Stream&amp;nbsp;&lt;/font&gt;&lt;/span&gt;&lt;/div&gt;" style="whiteSpace=wrap;html=1;rounded=1;shadow=1;comic=0;labelBackgroundColor=none;strokeWidth=2;fontFamily=Verdana;fontSize=12;align=center;arcSize=50;" parent="1" vertex="1">
          <mxGeometry x="730" y="-215" width="100" height="30" as="geometry" />
        </mxCell>
        <mxCell id="2c924340bb9dbf6c-67" value="&lt;p class=&quot;MsoNormal&quot; align=&quot;justify&quot; style=&quot;text-align: justify&quot;&gt;&lt;b&gt;&lt;span style=&quot;font-family: &amp;#34;calibri&amp;#34; ; font-weight: bold&quot;&gt;&lt;font style=&quot;font-size: 14px&quot;&gt;Grid-based&lt;/font&gt;&lt;/span&gt;&lt;/b&gt;&lt;/p&gt;&lt;p class=&quot;MsoNormal&quot; align=&quot;justify&quot; style=&quot;text-align: justify&quot;&gt;&lt;b&gt;&lt;span style=&quot;font-family: &amp;#34;calibri&amp;#34; ; font-weight: bold&quot;&gt;&lt;font style=&quot;font-size: 14px&quot;&gt;&amp;nbsp; clustering&lt;/font&gt;&lt;/span&gt;&lt;/b&gt;&lt;b&gt;&lt;span style=&quot;font-family: &amp;#34;calibri&amp;#34; ; font-weight: bold ; font-size: 14.0000pt&quot;&gt;&lt;/span&gt;&lt;/b&gt;&lt;/p&gt;" style="ellipse;whiteSpace=wrap;html=1;rounded=1;shadow=1;comic=0;labelBackgroundColor=none;strokeWidth=2;fontFamily=Verdana;fontSize=12;align=center;" parent="1" vertex="1">
          <mxGeometry x="200" y="20" width="140" height="90" as="geometry" />
        </mxCell>
        <mxCell id="2c924340bb9dbf6c-68" value="&lt;span&gt;MR-Stream&lt;/span&gt;" style="whiteSpace=wrap;html=1;rounded=1;shadow=1;comic=0;labelBackgroundColor=none;strokeWidth=2;fontFamily=Verdana;fontSize=12;align=center;arcSize=50;" parent="1" vertex="1">
          <mxGeometry x="870" y="120" width="100" height="20" as="geometry" />
        </mxCell>
        <mxCell id="2c924340bb9dbf6c-69" value="&lt;span&gt;D-Stream&amp;nbsp;&lt;/span&gt;&lt;span style=&quot;font-family: &amp;#34;cmr8&amp;#34; ; font-size: 10.6267px&quot;&gt;I&lt;/span&gt;" style="whiteSpace=wrap;html=1;rounded=1;shadow=1;comic=0;labelBackgroundColor=none;strokeWidth=2;fontFamily=Verdana;fontSize=12;align=center;arcSize=50;" parent="1" vertex="1">
          <mxGeometry x="580" y="210" width="100" height="20" as="geometry" />
        </mxCell>
        <mxCell id="2c924340bb9dbf6c-70" value="&lt;p class=&quot;MsoNormal&quot;&gt;&lt;span style=&quot;font-size: 12.0000pt&quot;&gt;&lt;font face=&quot;Calibri&quot;&gt;DUCstream&lt;/font&gt;&lt;/span&gt;&lt;/p&gt;" style="whiteSpace=wrap;html=1;rounded=1;shadow=1;comic=0;labelBackgroundColor=none;strokeWidth=2;fontFamily=Verdana;fontSize=12;align=center;arcSize=50;" parent="1" vertex="1">
          <mxGeometry x="490" y="70" width="100" height="20" as="geometry" />
        </mxCell>
        <mxCell id="2c924340bb9dbf6c-72" value="&lt;br&gt;&lt;br&gt;&lt;br&gt;&lt;div&gt;&lt;span style=&quot;font-size: 7.97pt ; font-family: &amp;#34;cmr8&amp;#34; ; color: rgb(0 , 0 , 0)&quot;&gt;Clustering data&amp;nbsp;&lt;/span&gt;&lt;/div&gt;&lt;div&gt;&lt;span style=&quot;font-size: 7.97pt ; font-family: &amp;#34;cmr8&amp;#34; ; color: rgb(0 , 0 , 0)&quot;&gt;stream in chunks&lt;/span&gt;&lt;/div&gt;&lt;br&gt;&lt;br&gt;" style="edgeStyle=none;rounded=1;html=1;labelBackgroundColor=none;startArrow=none;startFill=0;startSize=5;endArrow=classicThin;endFill=1;endSize=5;jettySize=auto;orthogonalLoop=1;strokeColor=#B3B3B3;strokeWidth=1;fontFamily=Verdana;fontSize=12" parent="1" source="2c924340bb9dbf6c-67" target="2c924340bb9dbf6c-70" edge="1">
          <mxGeometry x="0.0649" y="23" relative="1" as="geometry">
            <mxPoint as="offset" />
          </mxGeometry>
        </mxCell>
        <mxCell id="2c924340bb9dbf6c-73" value="" style="edgeStyle=none;rounded=1;html=1;labelBackgroundColor=none;startArrow=none;startFill=0;startSize=5;endArrow=classicThin;endFill=1;endSize=5;jettySize=auto;orthogonalLoop=1;strokeColor=#B3B3B3;strokeWidth=1;fontFamily=Verdana;fontSize=12;exitX=0.988;exitY=0.744;exitDx=0;exitDy=0;exitPerimeter=0;" parent="1" source="2c924340bb9dbf6c-67" target="2c924340bb9dbf6c-69" edge="1">
          <mxGeometry relative="1" as="geometry" />
        </mxCell>
        <mxCell id="2c924340bb9dbf6c-74" value="" style="edgeStyle=none;rounded=1;html=1;labelBackgroundColor=none;startArrow=none;startFill=0;startSize=5;endArrow=classicThin;endFill=1;endSize=5;jettySize=auto;orthogonalLoop=1;strokeColor=#B3B3B3;strokeWidth=1;fontFamily=Verdana;fontSize=12;exitX=0.5;exitY=1;exitDx=0;exitDy=0;entryX=0.424;entryY=0.03;entryDx=0;entryDy=0;entryPerimeter=0;" parent="1" source="1oA8xBJ8QGd1Spcs3NDZ-117" target="1oA8xBJ8QGd1Spcs3NDZ-192" edge="1">
          <mxGeometry x="0.0708" y="29" relative="1" as="geometry">
            <mxPoint x="870" y="130" as="targetPoint" />
            <Array as="points">
              <mxPoint x="800" y="50" />
            </Array>
            <mxPoint as="offset" />
          </mxGeometry>
        </mxCell>
        <mxCell id="2c924340bb9dbf6c-77" value="" style="edgeStyle=none;rounded=1;html=1;labelBackgroundColor=none;startArrow=none;startFill=0;startSize=5;endArrow=classicThin;endFill=1;endSize=5;jettySize=auto;orthogonalLoop=1;strokeColor=#B3B3B3;strokeWidth=1;fontFamily=Verdana;fontSize=12" parent="1" source="2c924340bb9dbf6c-5" target="2c924340bb9dbf6c-58" edge="1">
          <mxGeometry relative="1" as="geometry" />
        </mxCell>
        <mxCell id="2c924340bb9dbf6c-78" value="" style="edgeStyle=none;rounded=1;html=1;labelBackgroundColor=none;startArrow=none;startFill=0;startSize=5;endArrow=classicThin;endFill=1;endSize=5;jettySize=auto;orthogonalLoop=1;strokeColor=#B3B3B3;strokeWidth=1;fontFamily=Verdana;fontSize=12;entryX=0.25;entryY=1;entryDx=0;entryDy=0;" parent="1" source="2c924340bb9dbf6c-7" target="2c924340bb9dbf6c-59" edge="1">
          <mxGeometry x="-0.269" y="15" relative="1" as="geometry">
            <mxPoint x="740" y="-190" as="targetPoint" />
            <mxPoint as="offset" />
          </mxGeometry>
        </mxCell>
        <mxCell id="1oA8xBJ8QGd1Spcs3NDZ-4" style="edgeStyle=orthogonalEdgeStyle;rounded=0;orthogonalLoop=1;jettySize=auto;html=1;entryX=0;entryY=0.5;entryDx=0;entryDy=0;" parent="1" target="2c924340bb9dbf6c-10" edge="1">
          <mxGeometry relative="1" as="geometry">
            <mxPoint x="95" y="-557.5000000000002" as="sourcePoint" />
          </mxGeometry>
        </mxCell>
        <mxCell id="1oA8xBJ8QGd1Spcs3NDZ-8" value="&lt;p class=&quot;MsoNormal&quot;&gt;&lt;i&gt;&lt;span style=&quot;font-style: italic ; font-size: 12.0000pt&quot;&gt;&lt;font face=&quot;Calibri&quot;&gt;extensions of k-means&lt;/font&gt;&lt;/span&gt;&lt;/i&gt;&lt;/p&gt;" style="text;whiteSpace=wrap;html=1;" parent="1" vertex="1">
          <mxGeometry x="70" y="-522.5" width="170" height="40" as="geometry" />
        </mxCell>
        <mxCell id="1oA8xBJ8QGd1Spcs3NDZ-10" value="&lt;p class=&quot;MsoNormal&quot;&gt;&lt;font face=&quot;Calibri&quot;&gt;&lt;span style=&quot;font-size: 16px&quot;&gt;extensions of BIRCH&lt;/span&gt;&lt;/font&gt;&lt;/p&gt;" style="text;whiteSpace=wrap;html=1;" parent="1" vertex="1">
          <mxGeometry x="700" y="-740" width="70" height="10" as="geometry" />
        </mxCell>
        <mxCell id="1oA8xBJ8QGd1Spcs3NDZ-11" value="&lt;p class=&quot;MsoNormal&quot;&gt;&lt;font face=&quot;Calibri&quot; style=&quot;font-size: 13px&quot;&gt;CHAMELEON&lt;/font&gt;&lt;/p&gt;" style="text;whiteSpace=wrap;html=1;" parent="1" vertex="1">
          <mxGeometry x="445" y="-740" width="120" height="35" as="geometry" />
        </mxCell>
        <mxCell id="1oA8xBJ8QGd1Spcs3NDZ-15" value="" style="edgeStyle=none;rounded=1;html=1;labelBackgroundColor=none;startArrow=none;startFill=0;startSize=5;endArrow=classicThin;endFill=1;endSize=5;jettySize=auto;orthogonalLoop=1;strokeColor=#B3B3B3;strokeWidth=1;fontFamily=Verdana;fontSize=12;entryX=0;entryY=0.5;entryDx=0;entryDy=0;" parent="1" target="2c924340bb9dbf6c-58" edge="1">
          <mxGeometry relative="1" as="geometry">
            <mxPoint x="700.0048576646934" y="-569.6337493576312" as="sourcePoint" />
            <mxPoint x="861.0633333333333" y="-630" as="targetPoint" />
          </mxGeometry>
        </mxCell>
        <mxCell id="1oA8xBJ8QGd1Spcs3NDZ-20" value="&lt;p class=&quot;MsoNormal&quot;&gt;&lt;span style=&quot;font-family: &amp;#34;cmr10&amp;#34; ; font-size: 13.284px ; text-align: left&quot;&gt;&lt;b&gt;SWClustering&lt;/b&gt;&lt;/span&gt;&lt;br&gt;&lt;/p&gt;" style="whiteSpace=wrap;html=1;rounded=1;shadow=1;comic=0;labelBackgroundColor=none;strokeWidth=2;fontFamily=Verdana;fontSize=12;align=center;arcSize=50;" parent="1" vertex="1">
          <mxGeometry x="790" y="-780" width="110" height="20" as="geometry" />
        </mxCell>
        <mxCell id="1oA8xBJ8QGd1Spcs3NDZ-23" value="&lt;p class=&quot;MsoNormal&quot;&gt;&lt;font face=&quot;Calibri&quot;&gt;&lt;span style=&quot;font-size: 16px&quot;&gt;extensions of BIRCH&lt;/span&gt;&lt;/font&gt;&lt;/p&gt;" style="text;whiteSpace=wrap;html=1;" parent="1" vertex="1">
          <mxGeometry x="430" y="-670" width="70" height="10" as="geometry" />
        </mxCell>
        <mxCell id="1oA8xBJ8QGd1Spcs3NDZ-30" value="&lt;p class=&quot;MsoNormal&quot;&gt;&lt;span style=&quot;font-family: &amp;#34;cmr10&amp;#34; ; font-size: 13.284px ; text-align: left&quot;&gt;&lt;b&gt;E-Stream&lt;/b&gt;&lt;/span&gt;&lt;br&gt;&lt;/p&gt;" style="whiteSpace=wrap;html=1;rounded=1;shadow=1;comic=0;labelBackgroundColor=none;strokeWidth=2;fontFamily=Verdana;fontSize=12;align=center;arcSize=50;" parent="1" vertex="1">
          <mxGeometry x="590" y="-800" width="110" height="20" as="geometry" />
        </mxCell>
        <mxCell id="1oA8xBJ8QGd1Spcs3NDZ-35" value="" style="edgeStyle=none;rounded=1;html=1;labelBackgroundColor=none;startArrow=none;startFill=0;startSize=5;endArrow=classicThin;endFill=1;endSize=5;jettySize=auto;orthogonalLoop=1;strokeColor=#B3B3B3;strokeWidth=1;fontFamily=Verdana;fontSize=12;entryX=0.766;entryY=0.029;entryDx=0;entryDy=0;entryPerimeter=0;exitX=0;exitY=1;exitDx=0;exitDy=0;" parent="1" source="2c924340bb9dbf6c-4" target="2c924340bb9dbf6c-67" edge="1">
          <mxGeometry relative="1" as="geometry">
            <mxPoint x="549.1960202631456" y="-301.92108461342195" as="sourcePoint" />
            <mxPoint x="373.62078915298775" y="-412.535058681452" as="targetPoint" />
          </mxGeometry>
        </mxCell>
        <mxCell id="1oA8xBJ8QGd1Spcs3NDZ-36" value="" style="edgeStyle=none;rounded=1;html=1;labelBackgroundColor=none;startArrow=none;startFill=0;startSize=5;endArrow=classicThin;endFill=1;endSize=5;jettySize=auto;orthogonalLoop=1;strokeColor=#B3B3B3;strokeWidth=1;fontFamily=Verdana;fontSize=12;exitX=0.023;exitY=0.398;exitDx=0;exitDy=0;exitPerimeter=0;entryX=1;entryY=0.25;entryDx=0;entryDy=0;" parent="1" source="2c924340bb9dbf6c-2" target="2c924340bb9dbf6c-10" edge="1">
          <mxGeometry relative="1" as="geometry">
            <mxPoint x="637.6792116830513" y="-451.1576766775074" as="sourcePoint" />
            <mxPoint x="580" y="-461.304347826087" as="targetPoint" />
          </mxGeometry>
        </mxCell>
        <mxCell id="1oA8xBJ8QGd1Spcs3NDZ-53" value="" style="edgeStyle=orthogonalEdgeStyle;rounded=0;orthogonalLoop=1;jettySize=auto;html=1;" parent="1" source="1oA8xBJ8QGd1Spcs3NDZ-38" target="1oA8xBJ8QGd1Spcs3NDZ-49" edge="1">
          <mxGeometry relative="1" as="geometry" />
        </mxCell>
        <mxCell id="1oA8xBJ8QGd1Spcs3NDZ-38" value="&lt;p class=&quot;MsoNormal&quot;&gt;&lt;b style=&quot;font-family: &amp;#34;helvetica&amp;#34; ; text-align: left&quot;&gt;&lt;span style=&quot;font-size: 12pt&quot;&gt;&lt;font face=&quot;Calibri&quot;&gt;CellTree&lt;/font&gt;&lt;/span&gt;&lt;/b&gt;&lt;br&gt;&lt;/p&gt;" style="whiteSpace=wrap;html=1;rounded=1;shadow=1;comic=0;labelBackgroundColor=none;strokeWidth=2;fontFamily=Verdana;fontSize=12;align=center;arcSize=50;" parent="1" vertex="1">
          <mxGeometry x="80" y="10" width="100" height="20" as="geometry" />
        </mxCell>
        <mxCell id="1oA8xBJ8QGd1Spcs3NDZ-39" value="" style="edgeStyle=none;rounded=1;html=1;labelBackgroundColor=none;startArrow=none;startFill=0;startSize=5;endArrow=classicThin;endFill=1;endSize=5;jettySize=auto;orthogonalLoop=1;strokeColor=#B3B3B3;strokeWidth=1;fontFamily=Verdana;fontSize=12;entryX=1;entryY=0.5;entryDx=0;entryDy=0;" parent="1" source="2c924340bb9dbf6c-67" target="1oA8xBJ8QGd1Spcs3NDZ-38" edge="1">
          <mxGeometry relative="1" as="geometry">
            <mxPoint x="291.40703766661727" y="11.616421222106965" as="sourcePoint" />
            <mxPoint x="264.3478260869565" y="-50" as="targetPoint" />
          </mxGeometry>
        </mxCell>
        <mxCell id="1oA8xBJ8QGd1Spcs3NDZ-49" value="&lt;p class=&quot;MsoNormal&quot;&gt;&lt;span style=&quot;font-family: &amp;#34;calibri&amp;#34; ; font-size: 16px ; text-align: left&quot;&gt;Cell*Tree&lt;/span&gt;&lt;br&gt;&lt;/p&gt;" style="whiteSpace=wrap;html=1;rounded=1;shadow=1;comic=0;labelBackgroundColor=none;strokeWidth=2;fontFamily=Verdana;fontSize=12;align=center;arcSize=50;" parent="1" vertex="1">
          <mxGeometry x="80" y="-60" width="100" height="20" as="geometry" />
        </mxCell>
        <mxCell id="1oA8xBJ8QGd1Spcs3NDZ-58" value="&lt;p class=&quot;MsoNormal&quot; align=&quot;justify&quot; style=&quot;text-align: justify&quot;&gt;&lt;b style=&quot;font-family: &amp;#34;helvetica&amp;#34; ; text-align: left&quot;&gt;&lt;font face=&quot;Calibri&quot; style=&quot;font-size: 14px&quot;&gt;Model-based&amp;nbsp;&lt;/font&gt;&lt;/b&gt;&lt;/p&gt;&lt;p class=&quot;MsoNormal&quot; align=&quot;justify&quot; style=&quot;text-align: justify&quot;&gt;&lt;b style=&quot;font-family: &amp;#34;helvetica&amp;#34; ; text-align: left&quot;&gt;&lt;font face=&quot;Calibri&quot; style=&quot;font-size: 14px&quot;&gt;clustering methods&lt;/font&gt;&lt;/b&gt;&lt;br&gt;&lt;/p&gt;" style="ellipse;whiteSpace=wrap;html=1;rounded=1;shadow=1;comic=0;labelBackgroundColor=none;strokeWidth=2;fontFamily=Verdana;fontSize=12;align=center;" parent="1" vertex="1">
          <mxGeometry x="50" y="-362.5" width="140" height="100" as="geometry" />
        </mxCell>
        <mxCell id="1oA8xBJ8QGd1Spcs3NDZ-59" value="" style="edgeStyle=none;rounded=1;html=1;labelBackgroundColor=none;startArrow=none;startFill=0;startSize=5;endArrow=classicThin;endFill=1;endSize=5;jettySize=auto;orthogonalLoop=1;strokeColor=#B3B3B3;strokeWidth=1;fontFamily=Verdana;fontSize=12;exitX=0;exitY=0.5;exitDx=0;exitDy=0;entryX=1;entryY=0.5;entryDx=0;entryDy=0;" parent="1" source="2c924340bb9dbf6c-4" target="1oA8xBJ8QGd1Spcs3NDZ-58" edge="1">
          <mxGeometry relative="1" as="geometry">
            <mxPoint x="466.38755298652586" y="-311.2062430403171" as="sourcePoint" />
            <mxPoint x="364.6009918559191" y="-407.32128546940953" as="targetPoint" />
          </mxGeometry>
        </mxCell>
        <mxCell id="1oA8xBJ8QGd1Spcs3NDZ-61" value="&lt;p class=&quot;MsoNormal&quot;&gt;&lt;span style=&quot;font-size: 12pt&quot;&gt;&lt;font face=&quot;Calibri&quot;&gt;SWEM&lt;/font&gt;&lt;/span&gt;&lt;/p&gt;" style="whiteSpace=wrap;html=1;rounded=1;shadow=1;comic=0;labelBackgroundColor=none;strokeWidth=2;fontFamily=Verdana;fontSize=12;align=center;arcSize=50;" parent="1" vertex="1">
          <mxGeometry x="60" y="-432.5" width="100" height="20" as="geometry" />
        </mxCell>
        <mxCell id="1oA8xBJ8QGd1Spcs3NDZ-62" value="&lt;p class=&quot;MsoNormal&quot;&gt;&lt;span style=&quot;font-size: 12.0000pt&quot;&gt;&lt;font face=&quot;Calibri&quot;&gt;GCPSOM&lt;/font&gt;&lt;/span&gt;&lt;/p&gt;" style="whiteSpace=wrap;html=1;rounded=1;shadow=1;comic=0;labelBackgroundColor=none;strokeWidth=2;fontFamily=Verdana;fontSize=12;align=center;arcSize=50;" parent="1" vertex="1">
          <mxGeometry x="-60" y="-372.5" width="100" height="20" as="geometry" />
        </mxCell>
        <mxCell id="1oA8xBJ8QGd1Spcs3NDZ-63" value="" style="edgeStyle=none;rounded=1;html=1;labelBackgroundColor=none;startArrow=none;startFill=0;startSize=5;endArrow=classicThin;endFill=1;endSize=5;jettySize=auto;orthogonalLoop=1;strokeColor=#B3B3B3;strokeWidth=1;fontFamily=Verdana;fontSize=12;exitX=0.5;exitY=0;exitDx=0;exitDy=0;entryX=0.5;entryY=1;entryDx=0;entryDy=0;" parent="1" source="1oA8xBJ8QGd1Spcs3NDZ-58" target="1oA8xBJ8QGd1Spcs3NDZ-61" edge="1">
          <mxGeometry relative="1" as="geometry">
            <mxPoint x="346.38755298652586" y="-393.7062430403171" as="sourcePoint" />
            <mxPoint x="244.60099185591912" y="-489.82128546940953" as="targetPoint" />
          </mxGeometry>
        </mxCell>
        <mxCell id="1oA8xBJ8QGd1Spcs3NDZ-64" value="" style="edgeStyle=none;rounded=1;html=1;labelBackgroundColor=none;startArrow=none;startFill=0;startSize=5;endArrow=classicThin;endFill=1;endSize=5;jettySize=auto;orthogonalLoop=1;strokeColor=#B3B3B3;strokeWidth=1;fontFamily=Verdana;fontSize=12;exitX=0;exitY=0.5;exitDx=0;exitDy=0;entryX=0.572;entryY=1.07;entryDx=0;entryDy=0;entryPerimeter=0;" parent="1" source="1oA8xBJ8QGd1Spcs3NDZ-58" target="1oA8xBJ8QGd1Spcs3NDZ-62" edge="1">
          <mxGeometry relative="1" as="geometry">
            <mxPoint x="110" y="-362.5" as="sourcePoint" />
            <mxPoint x="60" y="-402.5" as="targetPoint" />
          </mxGeometry>
        </mxCell>
        <mxCell id="1oA8xBJ8QGd1Spcs3NDZ-66" value="&lt;div&gt;&lt;span style=&quot;font-family: &amp;#34;calibri&amp;#34; ; color: rgb(0 , 0 , 0)&quot;&gt;&lt;font style=&quot;font-size: 16px&quot;&gt;Based on SOM&lt;/font&gt;&lt;br&gt;&lt;/span&gt;&lt;/div&gt;" style="text;whiteSpace=wrap;html=1;" parent="1" vertex="1">
          <mxGeometry x="-70" y="-402.5" width="100" height="40" as="geometry" />
        </mxCell>
        <mxCell id="1oA8xBJ8QGd1Spcs3NDZ-67" value="&lt;p class=&quot;MsoNormal&quot;&gt;&lt;span style=&quot;font-weight: normal ; font-size: 12.0000pt&quot;&gt;&lt;font face=&quot;Calibri&quot;&gt;EM-based algorithm&lt;/font&gt;&lt;/span&gt;&lt;/p&gt;" style="text;whiteSpace=wrap;html=1;" parent="1" vertex="1">
          <mxGeometry x="50" y="-482.5" width="160" height="50" as="geometry" />
        </mxCell>
        <mxCell id="1oA8xBJ8QGd1Spcs3NDZ-73" value="&lt;span style=&quot;font-family: &amp;#34;cmr10&amp;#34; ; font-size: 13.28px ; text-align: left&quot;&gt;StreamOptics&lt;/span&gt;" style="whiteSpace=wrap;html=1;rounded=1;shadow=1;comic=0;labelBackgroundColor=none;strokeWidth=2;fontFamily=Verdana;fontSize=12;align=center;arcSize=50;" parent="1" vertex="1">
          <mxGeometry x="1250" y="-130" width="100" height="20" as="geometry" />
        </mxCell>
        <mxCell id="1oA8xBJ8QGd1Spcs3NDZ-75" value="&#xa;&#xa;&lt;span style=&quot;color: rgb(0, 0, 0); font-family: helvetica; font-size: 12px; font-style: normal; font-weight: 400; letter-spacing: normal; text-align: center; text-indent: 0px; text-transform: none; word-spacing: 0px; background-color: rgb(248, 249, 250); display: inline; float: none;&quot;&gt;Visualizing Data Streams&lt;/span&gt;&#xa;&#xa;" style="edgeStyle=none;rounded=1;html=1;labelBackgroundColor=none;startArrow=none;startFill=0;startSize=5;endArrow=classicThin;endFill=1;endSize=5;jettySize=auto;orthogonalLoop=1;strokeColor=#B3B3B3;strokeWidth=1;fontFamily=Verdana;fontSize=12;entryX=0;entryY=0.5;entryDx=0;entryDy=0;exitX=0.75;exitY=0;exitDx=0;exitDy=0;" parent="1" source="2c924340bb9dbf6c-59" target="1oA8xBJ8QGd1Spcs3NDZ-73" edge="1">
          <mxGeometry x="0.3297" y="-5" relative="1" as="geometry">
            <mxPoint x="780" y="-180" as="sourcePoint" />
            <mxPoint x="972.1052631578946" y="-410.0000000000002" as="targetPoint" />
            <mxPoint as="offset" />
          </mxGeometry>
        </mxCell>
        <mxCell id="1oA8xBJ8QGd1Spcs3NDZ-79" value="&lt;span style=&quot;font-family: &amp;#34;cmr10&amp;#34; ; font-size: 13.28px ; text-align: left&quot;&gt;C-DenStream&lt;/span&gt;" style="whiteSpace=wrap;html=1;rounded=1;shadow=1;comic=0;labelBackgroundColor=none;strokeWidth=2;fontFamily=Verdana;fontSize=12;align=center;arcSize=50;" parent="1" vertex="1">
          <mxGeometry x="1275" y="-40" width="100" height="20" as="geometry" />
        </mxCell>
        <mxCell id="1oA8xBJ8QGd1Spcs3NDZ-80" value="&lt;div style=&quot;text-align: left&quot;&gt;&lt;span style=&quot;font-size: 13.28px&quot;&gt;&lt;font face=&quot;cmr10&quot;&gt;R-DenStream&lt;/font&gt;&lt;/span&gt;&lt;/div&gt;" style="whiteSpace=wrap;html=1;rounded=1;shadow=1;comic=0;labelBackgroundColor=none;strokeWidth=2;fontFamily=Verdana;fontSize=12;align=center;arcSize=50;" parent="1" vertex="1">
          <mxGeometry x="1285" y="10" width="100" height="20" as="geometry" />
        </mxCell>
        <mxCell id="1oA8xBJ8QGd1Spcs3NDZ-81" value="&lt;span style=&quot;font-family: &amp;#34;cmr10&amp;#34; ; font-size: 13.28px ; text-align: left&quot;&gt;SDStream&lt;/span&gt;" style="whiteSpace=wrap;html=1;rounded=1;shadow=1;comic=0;labelBackgroundColor=none;strokeWidth=2;fontFamily=Verdana;fontSize=12;align=center;arcSize=50;" parent="1" vertex="1">
          <mxGeometry x="720" y="-110" width="100" height="20" as="geometry" />
        </mxCell>
        <mxCell id="1oA8xBJ8QGd1Spcs3NDZ-82" value="&lt;span style=&quot;font-family: &amp;#34;cmr10&amp;#34; ; font-size: 13.28px ; text-align: left&quot;&gt;HDenStream&lt;/span&gt;" style="whiteSpace=wrap;html=1;rounded=1;shadow=1;comic=0;labelBackgroundColor=none;strokeWidth=2;fontFamily=Verdana;fontSize=12;align=center;arcSize=50;" parent="1" vertex="1">
          <mxGeometry x="1200" y="-220" width="100" height="20" as="geometry" />
        </mxCell>
        <mxCell id="1oA8xBJ8QGd1Spcs3NDZ-83" value="" style="edgeStyle=none;rounded=1;html=1;labelBackgroundColor=none;startArrow=none;startFill=0;startSize=5;endArrow=classicThin;endFill=1;endSize=5;jettySize=auto;orthogonalLoop=1;strokeColor=#B3B3B3;strokeWidth=1;fontFamily=Verdana;fontSize=12;exitX=1;exitY=0.75;exitDx=0;exitDy=0;entryX=0;entryY=0.75;entryDx=0;entryDy=0;" parent="1" source="2c924340bb9dbf6c-59" target="1oA8xBJ8QGd1Spcs3NDZ-79" edge="1">
          <mxGeometry relative="1" as="geometry">
            <mxPoint x="800" y="-225" as="sourcePoint" />
            <mxPoint x="980" y="-230.00000000000023" as="targetPoint" />
          </mxGeometry>
        </mxCell>
        <mxCell id="1oA8xBJ8QGd1Spcs3NDZ-101" value="Clustering with constraints" style="edgeLabel;html=1;align=center;verticalAlign=middle;resizable=0;points=[];" parent="1oA8xBJ8QGd1Spcs3NDZ-83" vertex="1" connectable="0">
          <mxGeometry x="0.2804" relative="1" as="geometry">
            <mxPoint x="-10" y="-7" as="offset" />
          </mxGeometry>
        </mxCell>
        <mxCell id="1oA8xBJ8QGd1Spcs3NDZ-84" value="" style="edgeStyle=none;rounded=1;html=1;labelBackgroundColor=none;startArrow=none;startFill=0;startSize=5;endArrow=classicThin;endFill=1;endSize=5;jettySize=auto;orthogonalLoop=1;strokeColor=#B3B3B3;strokeWidth=1;fontFamily=Verdana;fontSize=12;exitX=0.5;exitY=1;exitDx=0;exitDy=0;entryX=0;entryY=0.5;entryDx=0;entryDy=0;" parent="1" source="1oA8xBJ8QGd1Spcs3NDZ-105" target="1oA8xBJ8QGd1Spcs3NDZ-80" edge="1">
          <mxGeometry relative="1" as="geometry">
            <mxPoint x="1055" y="-45" as="sourcePoint" />
            <mxPoint x="1235" y="-50.00000000000023" as="targetPoint" />
          </mxGeometry>
        </mxCell>
        <mxCell id="1oA8xBJ8QGd1Spcs3NDZ-85" value="" style="edgeStyle=none;rounded=1;html=1;labelBackgroundColor=none;startArrow=none;startFill=0;startSize=5;endArrow=classicThin;endFill=1;endSize=5;jettySize=auto;orthogonalLoop=1;strokeColor=#B3B3B3;strokeWidth=1;fontFamily=Verdana;fontSize=12;entryX=0;entryY=0.75;entryDx=0;entryDy=0;exitX=0.917;exitY=0.75;exitDx=0;exitDy=0;exitPerimeter=0;" parent="1" source="2c924340bb9dbf6c-7" target="1oA8xBJ8QGd1Spcs3NDZ-81" edge="1">
          <mxGeometry relative="1" as="geometry">
            <mxPoint x="670" y="-130" as="sourcePoint" />
            <mxPoint x="1000" y="-210.00000000000023" as="targetPoint" />
          </mxGeometry>
        </mxCell>
        <mxCell id="1oA8xBJ8QGd1Spcs3NDZ-108" value="clustering over &lt;br&gt;sliding window" style="edgeLabel;html=1;align=center;verticalAlign=middle;resizable=0;points=[];" parent="1oA8xBJ8QGd1Spcs3NDZ-85" vertex="1" connectable="0">
          <mxGeometry x="0.446" y="1" relative="1" as="geometry">
            <mxPoint x="16" y="-25" as="offset" />
          </mxGeometry>
        </mxCell>
        <mxCell id="1oA8xBJ8QGd1Spcs3NDZ-87" value="" style="edgeStyle=none;rounded=1;html=1;labelBackgroundColor=none;startArrow=none;startFill=0;startSize=5;endArrow=classicThin;endFill=1;endSize=5;jettySize=auto;orthogonalLoop=1;strokeColor=#B3B3B3;strokeWidth=1;fontFamily=Verdana;fontSize=12;entryX=0;entryY=0.5;entryDx=0;entryDy=0;exitX=0.75;exitY=0;exitDx=0;exitDy=0;" parent="1" source="2c924340bb9dbf6c-59" target="1oA8xBJ8QGd1Spcs3NDZ-82" edge="1">
          <mxGeometry relative="1" as="geometry">
            <mxPoint x="750" y="-210" as="sourcePoint" />
            <mxPoint x="850" y="-135" as="targetPoint" />
            <Array as="points" />
          </mxGeometry>
        </mxCell>
        <mxCell id="1oA8xBJ8QGd1Spcs3NDZ-109" value="clustering over &lt;br&gt;heterogenous data streams&lt;br&gt;(&lt;span style=&quot;font-family: &amp;#34;cmr8&amp;#34; ; font-size: 7.97pt&quot;&gt;categorical data&lt;/span&gt;)" style="edgeLabel;html=1;align=center;verticalAlign=middle;resizable=0;points=[];" parent="1oA8xBJ8QGd1Spcs3NDZ-87" vertex="1" connectable="0">
          <mxGeometry x="0.2391" y="2" relative="1" as="geometry">
            <mxPoint x="40" y="14" as="offset" />
          </mxGeometry>
        </mxCell>
        <mxCell id="1oA8xBJ8QGd1Spcs3NDZ-91" value="" style="edgeStyle=none;rounded=1;html=1;labelBackgroundColor=none;startArrow=none;startFill=0;startSize=5;endArrow=classicThin;endFill=1;endSize=5;jettySize=auto;orthogonalLoop=1;strokeColor=#B3B3B3;strokeWidth=1;fontFamily=Verdana;fontSize=12;exitX=0.25;exitY=0;exitDx=0;exitDy=0;entryX=0.574;entryY=1.197;entryDx=0;entryDy=0;entryPerimeter=0;" parent="1" source="2c924340bb9dbf6c-11" target="1oA8xBJ8QGd1Spcs3NDZ-30" edge="1">
          <mxGeometry relative="1" as="geometry">
            <mxPoint x="677.6114701670876" y="-594.1625115139234" as="sourcePoint" />
            <mxPoint x="729.7368421052631" y="-645.0000000000002" as="targetPoint" />
          </mxGeometry>
        </mxCell>
        <mxCell id="1oA8xBJ8QGd1Spcs3NDZ-92" value="&lt;span style=&quot;font-family: &amp;#34;helvetica&amp;#34;&quot;&gt;Extended from CluStream&lt;/span&gt;" style="edgeLabel;html=1;align=center;verticalAlign=middle;resizable=0;points=[];" parent="1oA8xBJ8QGd1Spcs3NDZ-91" vertex="1" connectable="0">
          <mxGeometry x="0.2794" relative="1" as="geometry">
            <mxPoint as="offset" />
          </mxGeometry>
        </mxCell>
        <mxCell id="1oA8xBJ8QGd1Spcs3NDZ-93" value="&lt;br&gt;&lt;br&gt;&lt;span style=&quot;font-size: 11px ; font-family: &amp;#34;helvetica&amp;#34; ; background-color: rgb(255 , 255 , 255)&quot;&gt;Extended from&lt;br&gt;&amp;nbsp;CluStream&lt;/span&gt;" style="edgeStyle=none;rounded=1;html=1;labelBackgroundColor=none;startArrow=none;startFill=0;startSize=5;endArrow=classicThin;endFill=1;endSize=5;jettySize=auto;orthogonalLoop=1;strokeColor=#B3B3B3;strokeWidth=1;fontFamily=Verdana;fontSize=12;entryX=0.5;entryY=1;entryDx=0;entryDy=0;exitX=0.606;exitY=-0.112;exitDx=0;exitDy=0;exitPerimeter=0;" parent="1" source="2c924340bb9dbf6c-11" target="1oA8xBJ8QGd1Spcs3NDZ-20" edge="1">
          <mxGeometry x="0.4739" y="-10" relative="1" as="geometry">
            <mxPoint x="750" y="-670" as="sourcePoint" />
            <mxPoint x="729.7368421052631" y="-645.0000000000002" as="targetPoint" />
            <Array as="points">
              <mxPoint x="840" y="-720" />
            </Array>
            <mxPoint as="offset" />
          </mxGeometry>
        </mxCell>
        <mxCell id="1oA8xBJ8QGd1Spcs3NDZ-94" value="&#xa;&#xa;&lt;br style=&quot;color: rgb(0, 0, 0); font-family: verdana; font-size: 12px; font-style: normal; font-weight: 400; letter-spacing: normal; text-align: center; text-indent: 0px; text-transform: none; word-spacing: 0px; background-color: rgb(248, 249, 250);&quot;&gt;&lt;br style=&quot;color: rgb(0, 0, 0); font-family: verdana; font-size: 12px; font-style: normal; font-weight: 400; letter-spacing: normal; text-align: center; text-indent: 0px; text-transform: none; word-spacing: 0px; background-color: rgb(248, 249, 250);&quot;&gt;&lt;span style=&quot;color: rgb(0, 0, 0); font-size: 11px; font-style: normal; font-weight: 400; letter-spacing: normal; text-align: center; text-indent: 0px; text-transform: none; word-spacing: 0px; font-family: helvetica; background-color: rgb(255, 255, 255); display: inline; float: none;&quot;&gt;Extended from CluStream&lt;/span&gt;&lt;br style=&quot;color: rgb(0, 0, 0); font-family: verdana; font-size: 12px; font-style: normal; font-weight: 400; letter-spacing: normal; text-align: center; text-indent: 0px; text-transform: none; word-spacing: 0px; background-color: rgb(248, 249, 250);&quot;&gt;&#xa;&#xa;" style="edgeStyle=none;rounded=1;html=1;labelBackgroundColor=none;startArrow=none;startFill=0;startSize=5;endArrow=classicThin;endFill=1;endSize=5;jettySize=auto;orthogonalLoop=1;strokeColor=#B3B3B3;strokeWidth=1;fontFamily=Verdana;fontSize=12;exitX=0.75;exitY=1;exitDx=0;exitDy=0;entryX=0.351;entryY=0.033;entryDx=0;entryDy=0;entryPerimeter=0;" parent="1" source="2c924340bb9dbf6c-11" target="2c924340bb9dbf6c-58" edge="1">
          <mxGeometry relative="1" as="geometry">
            <mxPoint x="677.6114701670876" y="-594.1625115139234" as="sourcePoint" />
            <mxPoint x="729.7368421052631" y="-645.0000000000002" as="targetPoint" />
          </mxGeometry>
        </mxCell>
        <mxCell id="1oA8xBJ8QGd1Spcs3NDZ-95" value="&lt;span style=&quot;color: rgba(0 , 0 , 0 , 0) ; font-family: monospace ; font-size: 0px ; background-color: rgb(248 , 249 , 250)&quot;&gt;%3CmxGraphModel%3E%3Croot%3E%3CmxCell%20id%3D%220%22%2F%3E%3CmxCell%20id%3D%221%22%20parent%3D%220%22%2F%3E%3CmxCell%20id%3D%222%22%20value%3D%22%26%2310%3B%26%2310%3B%26lt%3Bspan%20style%3D%26quot%3Bcolor%3A%20rgb(0%2C%200%2C%200)%3B%20font-family%3A%20helvetica%3B%20font-size%3A%2011px%3B%20font-style%3A%20normal%3B%20font-weight%3A%20400%3B%20letter-spacing%3A%20normal%3B%20text-align%3A%20center%3B%20text-indent%3A%200px%3B%20text-transform%3A%20none%3B%20word-spacing%3A%200px%3B%20background-color%3A%20rgb(255%2C%20255%2C%20255)%3B%20display%3A%20inline%3B%20float%3A%20none%3B%26quot%3B%26gt%3BExtended%20from%20CluStream%26lt%3B%2Fspan%26gt%3B%26%2310%3B%26%2310%3B%22%20style%3D%22edgeStyle%3Dnone%3Brounded%3D1%3Bhtml%3D1%3BlabelBackgroundColor%3Dnone%3BstartArrow%3Dnone%3BstartFill%3D0%3BstartSize%3D5%3BendArrow%3DclassicThin%3BendFill%3D1%3BendSize%3D5%3BjettySize%3Dauto%3BorthogonalLoop%3D1%3BstrokeColor%3D%23B3B3B3%3BstrokeWidth%3D1%3BfontFamily%3DVerdana%3BfontSize%3D12%3BentryX%3D0.5%3BentryY%3D1%3BentryDx%3D0%3BentryDy%3D0%3BexitX%3D0.606%3BexitY%3D-0.112%3BexitDx%3D0%3BexitDy%3D0%3BexitPerimeter%3D0%3B%22%20edge%3D%221%22%20parent%3D%221%22%3E%3CmxGeometry%20x%3D%220.6614%22%20y%3D%22-20%22%20relative%3D%221%22%20as%3D%22geometry%22%3E%3CmxPoint%20x%3D%22800.5999999999999%22%20y%3D%2242.75999999999999%22%20as%3D%22sourcePoint%22%2F%3E%3CmxPoint%20x%3D%22905%22%20y%3D%22-40.00000000000023%22%20as%3D%22targetPoint%22%2F%3E%3CmxPoint%20as%3D%22offset%22%2F%3E%3C%2FmxGeometry%3E%3C%2FmxCell%3E%3C%2Froot%3E%3C%2FmxGraphModel%3E&lt;/span&gt;" style="edgeLabel;html=1;align=center;verticalAlign=middle;resizable=0;points=[];" parent="1oA8xBJ8QGd1Spcs3NDZ-94" vertex="1" connectable="0">
          <mxGeometry x="-0.1967" relative="1" as="geometry">
            <mxPoint as="offset" />
          </mxGeometry>
        </mxCell>
        <mxCell id="1oA8xBJ8QGd1Spcs3NDZ-96" value="&lt;span style=&quot;color: rgba(0 , 0 , 0 , 0) ; font-family: monospace ; font-size: 0px ; background-color: rgb(248 , 249 , 250)&quot;&gt;%3CmxGraphModel%3E%3Croot%3E%3CmxCell%20id%3D%220%22%2F%3E%3CmxCell%20id%3D%221%22%20parent%3D%220%22%2F%3E%3CmxCell%20id%3D%222%22%20value%3D%22%26%2310%3B%26%2310%3B%26lt%3Bspan%20style%3D%26quot%3Bcolor%3A%20rgb(0%2C%200%2C%200)%3B%20font-family%3A%20helvetica%3B%20font-size%3A%2011px%3B%20font-style%3A%20normal%3B%20font-weight%3A%20400%3B%20letter-spacing%3A%20normal%3B%20text-align%3A%20center%3B%20text-indent%3A%200px%3B%20text-transform%3A%20none%3B%20word-spacing%3A%200px%3B%20background-color%3A%20rgb(255%2C%20255%2C%20255)%3B%20display%3A%20inline%3B%20float%3A%20none%3B%26quot%3B%26gt%3BExtended%20from%20CluStream%26lt%3B%2Fspan%26gt%3B%26%2310%3B%26%2310%3B%22%20style%3D%22edgeStyle%3Dnone%3Brounded%3D1%3Bhtml%3D1%3BlabelBackgroundColor%3Dnone%3BstartArrow%3Dnone%3BstartFill%3D0%3BstartSize%3D5%3BendArrow%3DclassicThin%3BendFill%3D1%3BendSize%3D5%3BjettySize%3Dauto%3BorthogonalLoop%3D1%3BstrokeColor%3D%23B3B3B3%3BstrokeWidth%3D1%3BfontFamily%3DVerdana%3BfontSize%3D12%3BentryX%3D0.5%3BentryY%3D1%3BentryDx%3D0%3BentryDy%3D0%3BexitX%3D0.606%3BexitY%3D-0.112%3BexitDx%3D0%3BexitDy%3D0%3BexitPerimeter%3D0%3B%22%20edge%3D%221%22%20parent%3D%221%22%3E%3CmxGeometry%20x%3D%220.6614%22%20y%3D%22-20%22%20relative%3D%221%22%20as%3D%22geometry%22%3E%3CmxPoint%20x%3D%22800.5999999999999%22%20y%3D%2242.75999999999999%22%20as%3D%22sourcePoint%22%2F%3E%3CmxPoint%20x%3D%22905%22%20y%3D%22-40.00000000000023%22%20as%3D%22targetPoint%22%2F%3E%3CmxPoint%20as%3D%22offset%22%2F%3E%3C%2FmxGeometry%3E%3C%2FmxCell%3E%3C%2Froot%3E%3C%2FmxGraphModel%3E&lt;/span&gt;&lt;span style=&quot;color: rgba(0 , 0 , 0 , 0) ; font-family: monospace ; font-size: 0px ; background-color: rgb(248 , 249 , 250)&quot;&gt;%3CmxGraphModel%3E%3Croot%3E%3CmxCell%20id%3D%220%22%2F%3E%3CmxCell%20id%3D%221%22%20parent%3D%220%22%2F%3E%3CmxCell%20id%3D%222%22%20value%3D%22%26%2310%3B%26%2310%3B%26lt%3Bspan%20style%3D%26quot%3Bcolor%3A%20rgb(0%2C%200%2C%200)%3B%20font-family%3A%20helvetica%3B%20font-size%3A%2011px%3B%20font-style%3A%20normal%3B%20font-weight%3A%20400%3B%20letter-spacing%3A%20normal%3B%20text-align%3A%20center%3B%20text-indent%3A%200px%3B%20text-transform%3A%20none%3B%20word-spacing%3A%200px%3B%20background-color%3A%20rgb(255%2C%20255%2C%20255)%3B%20display%3A%20inline%3B%20float%3A%20none%3B%26quot%3B%26gt%3BExtended%20from%20CluStream%26lt%3B%2Fspan%26gt%3B%26%2310%3B%26%2310%3B%22%20style%3D%22edgeStyle%3Dnone%3Brounded%3D1%3Bhtml%3D1%3BlabelBackgroundColor%3Dnone%3BstartArrow%3Dnone%3BstartFill%3D0%3BstartSize%3D5%3BendArrow%3DclassicThin%3BendFill%3D1%3BendSize%3D5%3BjettySize%3Dauto%3BorthogonalLoop%3D1%3BstrokeColor%3D%23B3B3B3%3BstrokeWidth%3D1%3BfontFamily%3DVerdana%3BfontSize%3D12%3BentryX%3D0.5%3BentryY%3D1%3BentryDx%3D0%3BentryDy%3D0%3BexitX%3D0.606%3BexitY%3D-0.112%3BexitDx%3D0%3BexitDy%3D0%3BexitPerimeter%3D0%3B%22%20edge%3D%221%22%20parent%3D%221%22%3E%3CmxGeometry%20x%3D%220.6614%22%20y%3D%22-20%22%20relative%3D%221%22%20as%3D%22geometry%22%3E%3CmxPoint%20x%3D%22800.5999999999999%22%20y%3D%2242.75999999999999%22%20as%3D%22sourcePoint%22%2F%3E%3CmxPoint%20x%3D%22905%22%20y%3D%22-40.00000000000023%22%20as%3D%22targetPoint%22%2F%3E%3CmxPoint%20as%3D%22offset%22%2F%3E%3C%2FmxGeometry%3E%3C%2FmxCell%3E%3C%2Froot%3E%3C%2FmxGraphModel%3E&lt;/span&gt;" style="edgeLabel;html=1;align=center;verticalAlign=middle;resizable=0;points=[];" parent="1oA8xBJ8QGd1Spcs3NDZ-94" vertex="1" connectable="0">
          <mxGeometry x="-0.2298" y="-1" relative="1" as="geometry">
            <mxPoint as="offset" />
          </mxGeometry>
        </mxCell>
        <mxCell id="1oA8xBJ8QGd1Spcs3NDZ-105" value="Keeping discarded&lt;br&gt;&amp;nbsp;Outlier Micro -cluster" style="text;html=1;align=center;verticalAlign=middle;resizable=0;points=[];autosize=1;strokeColor=none;" parent="1" vertex="1">
          <mxGeometry x="1040" y="-60" width="130" height="30" as="geometry" />
        </mxCell>
        <mxCell id="1oA8xBJ8QGd1Spcs3NDZ-107" value="" style="edgeStyle=none;rounded=1;html=1;labelBackgroundColor=none;startArrow=none;startFill=0;startSize=5;endArrow=none;endFill=1;endSize=5;jettySize=auto;orthogonalLoop=1;strokeColor=#B3B3B3;strokeWidth=1;fontFamily=Verdana;fontSize=12;exitX=0.5;exitY=1;exitDx=0;exitDy=0;" parent="1" source="2c924340bb9dbf6c-59" edge="1">
          <mxGeometry relative="1" as="geometry">
            <mxPoint x="740" y="-220" as="sourcePoint" />
            <mxPoint x="1070" y="-50" as="targetPoint" />
          </mxGeometry>
        </mxCell>
        <mxCell id="1oA8xBJ8QGd1Spcs3NDZ-112" value="&lt;div&gt;&lt;span style=&quot;font-size: 7.97pt ; font-family: &amp;#34;cmr8&amp;#34;&quot;&gt;PreDeCon&lt;/span&gt;&lt;span style=&quot;font-family: &amp;#34;cmr8&amp;#34; ; font-size: 7.97pt&quot;&gt;Stream&lt;/span&gt;&lt;/div&gt;" style="whiteSpace=wrap;html=1;rounded=1;shadow=1;comic=0;labelBackgroundColor=none;strokeWidth=2;fontFamily=Verdana;fontSize=12;align=center;arcSize=50;" parent="1" vertex="1">
          <mxGeometry x="790" y="-395" width="150" height="40" as="geometry" />
        </mxCell>
        <mxCell id="1oA8xBJ8QGd1Spcs3NDZ-113" value="&lt;div&gt;&lt;span style=&quot;font-size: 7.97pt ; font-family: &amp;#34;cmr8&amp;#34;&quot;&gt;HDDStream&lt;/span&gt;&lt;/div&gt;" style="whiteSpace=wrap;html=1;rounded=1;shadow=1;comic=0;labelBackgroundColor=none;strokeWidth=2;fontFamily=Verdana;fontSize=12;align=center;arcSize=50;" parent="1" vertex="1">
          <mxGeometry x="990" y="-395" width="100" height="20" as="geometry" />
        </mxCell>
        <mxCell id="1oA8xBJ8QGd1Spcs3NDZ-115" value="&lt;div style=&quot;text-align: left&quot;&gt;&lt;span style=&quot;font-family: &amp;#34;cmr8&amp;#34; ; font-size: 10.6267px&quot;&gt;FlockStream&lt;/span&gt;&lt;br&gt;&lt;/div&gt;" style="whiteSpace=wrap;html=1;rounded=1;shadow=1;comic=0;labelBackgroundColor=none;strokeWidth=2;fontFamily=Verdana;fontSize=12;align=center;arcSize=50;" parent="1" vertex="1">
          <mxGeometry x="1060" y="10" width="100" height="20" as="geometry" />
        </mxCell>
        <mxCell id="1oA8xBJ8QGd1Spcs3NDZ-117" value="&lt;div style=&quot;text-align: left&quot;&gt;&lt;span style=&quot;font-family: &amp;#34;cmr8&amp;#34; ; font-size: 10.6267px&quot;&gt;SOStream&lt;/span&gt;&lt;br&gt;&lt;/div&gt;" style="whiteSpace=wrap;html=1;rounded=1;shadow=1;comic=0;labelBackgroundColor=none;strokeWidth=2;fontFamily=Verdana;fontSize=12;align=center;arcSize=50;" parent="1" vertex="1">
          <mxGeometry x="750" y="30" width="100" height="20" as="geometry" />
        </mxCell>
        <mxCell id="1oA8xBJ8QGd1Spcs3NDZ-119" value="Clustering high-dimensional &lt;br&gt;data streams" style="edgeStyle=none;rounded=1;html=1;labelBackgroundColor=none;startArrow=none;startFill=0;startSize=5;endArrow=classicThin;endFill=1;endSize=5;jettySize=auto;orthogonalLoop=1;strokeColor=#B3B3B3;strokeWidth=1;fontFamily=Verdana;fontSize=12;entryX=0;entryY=0.5;entryDx=0;entryDy=0;" parent="1" target="1oA8xBJ8QGd1Spcs3NDZ-112" edge="1">
          <mxGeometry x="-0.2876" y="37" relative="1" as="geometry">
            <mxPoint x="770" y="-220" as="sourcePoint" />
            <mxPoint x="1030" y="-260.0000000000002" as="targetPoint" />
            <mxPoint as="offset" />
          </mxGeometry>
        </mxCell>
        <mxCell id="1oA8xBJ8QGd1Spcs3NDZ-120" value="" style="edgeStyle=none;rounded=1;html=1;labelBackgroundColor=none;startArrow=none;startFill=0;startSize=5;endArrow=classicThin;endFill=1;endSize=5;jettySize=auto;orthogonalLoop=1;strokeColor=#B3B3B3;strokeWidth=1;fontFamily=Verdana;fontSize=12;entryX=0.5;entryY=1;entryDx=0;entryDy=0;" parent="1" target="1oA8xBJ8QGd1Spcs3NDZ-113" edge="1">
          <mxGeometry relative="1" as="geometry">
            <mxPoint x="770" y="-220" as="sourcePoint" />
            <mxPoint x="1010" y="-420" as="targetPoint" />
            <Array as="points">
              <mxPoint x="910" y="-300" />
            </Array>
          </mxGeometry>
        </mxCell>
        <mxCell id="1oA8xBJ8QGd1Spcs3NDZ-121" value="&lt;span style=&quot;font-family: &amp;#34;verdana&amp;#34; ; font-size: 12px ; background-color: rgb(248 , 249 , 250)&quot;&gt;Clustering high-dimensional&lt;/span&gt;&lt;br style=&quot;font-family: &amp;#34;verdana&amp;#34; ; font-size: 12px ; background-color: rgb(248 , 249 , 250)&quot;&gt;&lt;span style=&quot;font-family: &amp;#34;verdana&amp;#34; ; font-size: 12px ; background-color: rgb(248 , 249 , 250)&quot;&gt;data streams&lt;/span&gt;" style="edgeLabel;html=1;align=center;verticalAlign=middle;resizable=0;points=[];" parent="1oA8xBJ8QGd1Spcs3NDZ-120" vertex="1" connectable="0">
          <mxGeometry x="0.2751" y="1" relative="1" as="geometry">
            <mxPoint x="1" as="offset" />
          </mxGeometry>
        </mxCell>
        <mxCell id="1oA8xBJ8QGd1Spcs3NDZ-123" value="" style="edgeStyle=none;rounded=1;html=1;labelBackgroundColor=none;startArrow=none;startFill=0;startSize=5;endArrow=classicThin;endFill=1;endSize=5;jettySize=auto;orthogonalLoop=1;strokeColor=#B3B3B3;strokeWidth=1;fontFamily=Verdana;fontSize=12;entryX=0.5;entryY=0;entryDx=0;entryDy=0;" parent="1" target="1oA8xBJ8QGd1Spcs3NDZ-112" edge="1">
          <mxGeometry relative="1" as="geometry">
            <mxPoint x="780.3139375485857" y="-471.7920239063942" as="sourcePoint" />
            <mxPoint x="915.2631578947367" y="-530.0000000000002" as="targetPoint" />
          </mxGeometry>
        </mxCell>
        <mxCell id="1oA8xBJ8QGd1Spcs3NDZ-124" value="" style="edgeStyle=none;rounded=1;html=1;labelBackgroundColor=none;startArrow=none;startFill=0;startSize=5;endArrow=classicThin;endFill=1;endSize=5;jettySize=auto;orthogonalLoop=1;strokeColor=#B3B3B3;strokeWidth=1;fontFamily=Verdana;fontSize=12;entryX=0.5;entryY=0;entryDx=0;entryDy=0;" parent="1" target="1oA8xBJ8QGd1Spcs3NDZ-113" edge="1">
          <mxGeometry relative="1" as="geometry">
            <mxPoint x="780" y="-470" as="sourcePoint" />
            <mxPoint x="925.2631578947367" y="-520.0000000000002" as="targetPoint" />
          </mxGeometry>
        </mxCell>
        <mxCell id="1oA8xBJ8QGd1Spcs3NDZ-125" value="" style="edgeStyle=none;rounded=1;html=1;labelBackgroundColor=none;startArrow=none;startFill=0;startSize=5;endArrow=classicThin;endFill=1;endSize=5;jettySize=auto;orthogonalLoop=1;strokeColor=#B3B3B3;strokeWidth=1;fontFamily=Verdana;fontSize=12;exitX=0.426;exitY=1.01;exitDx=0;exitDy=0;exitPerimeter=0;entryX=0.6;entryY=0;entryDx=0;entryDy=0;entryPerimeter=0;" parent="1" source="2c924340bb9dbf6c-7" target="2c924340bb9dbf6c-70" edge="1">
          <mxGeometry relative="1" as="geometry">
            <mxPoint x="477.57359312880703" y="-227.57359312880703" as="sourcePoint" />
            <mxPoint x="450" y="33" as="targetPoint" />
          </mxGeometry>
        </mxCell>
        <mxCell id="1oA8xBJ8QGd1Spcs3NDZ-126" value="&lt;div&gt;&lt;span style=&quot;font-size: 9.963pt ; font-family: &amp;#34;cmr10&amp;#34; ; color: rgb(0 , 0 , 0)&quot;&gt;extends the OP&lt;/span&gt;&lt;span style=&quot;font-family: &amp;#34;cmr10&amp;#34; ; font-size: 9.963pt&quot;&gt;TICS&lt;/span&gt;&lt;/div&gt;" style="text;whiteSpace=wrap;html=1;" parent="1" vertex="1">
          <mxGeometry x="1230" y="-165" width="140" height="30" as="geometry" />
        </mxCell>
        <mxCell id="1oA8xBJ8QGd1Spcs3NDZ-130" value="Automatic selection of&lt;br&gt;&amp;nbsp;Density threhold" style="edgeStyle=none;rounded=1;html=1;labelBackgroundColor=none;startArrow=none;startFill=0;startSize=5;endArrow=classicThin;endFill=1;endSize=5;jettySize=auto;orthogonalLoop=1;strokeColor=#B3B3B3;strokeWidth=1;fontFamily=Verdana;fontSize=12;entryX=0.101;entryY=-0.097;entryDx=0;entryDy=0;exitX=0.677;exitY=0.974;exitDx=0;exitDy=0;exitPerimeter=0;entryPerimeter=0;" parent="1" source="2c924340bb9dbf6c-7" target="1oA8xBJ8QGd1Spcs3NDZ-117" edge="1">
          <mxGeometry x="0.2119" y="15" relative="1" as="geometry">
            <mxPoint x="658.3219520207126" y="-109.2217393219471" as="sourcePoint" />
            <mxPoint x="770" y="-20" as="targetPoint" />
            <Array as="points">
              <mxPoint x="680" y="-20" />
            </Array>
            <mxPoint as="offset" />
          </mxGeometry>
        </mxCell>
        <mxCell id="1oA8xBJ8QGd1Spcs3NDZ-131" value="&#xa;&#xa;&lt;span style=&quot;color: rgb(0, 0, 0); font-family: helvetica; font-size: 11px; font-style: normal; font-weight: 400; letter-spacing: normal; text-align: center; text-indent: 0px; text-transform: none; word-spacing: 0px; background-color: rgb(255, 255, 255); display: inline; float: none;&quot;&gt;Reducing the number of&lt;/span&gt;&lt;br style=&quot;color: rgb(0, 0, 0); font-family: helvetica; font-size: 11px; font-style: normal; font-weight: 400; letter-spacing: normal; text-align: center; text-indent: 0px; text-transform: none; word-spacing: 0px;&quot;&gt;&lt;span style=&quot;color: rgb(0, 0, 0); font-family: helvetica; font-size: 11px; font-style: normal; font-weight: 400; letter-spacing: normal; text-align: center; text-indent: 0px; text-transform: none; word-spacing: 0px; background-color: rgb(255, 255, 255); display: inline; float: none;&quot;&gt;micro-cluster neighboring&amp;nbsp;&lt;/span&gt;&lt;br style=&quot;color: rgb(0, 0, 0); font-family: helvetica; font-size: 11px; font-style: normal; font-weight: 400; letter-spacing: normal; text-align: center; text-indent: 0px; text-transform: none; word-spacing: 0px;&quot;&gt;&lt;span style=&quot;color: rgb(0, 0, 0); font-family: helvetica; font-size: 11px; font-style: normal; font-weight: 400; letter-spacing: normal; text-align: center; text-indent: 0px; text-transform: none; word-spacing: 0px; background-color: rgb(255, 255, 255); display: inline; float: none;&quot;&gt;comparisons&amp;nbsp;&lt;/span&gt;&#xa;&#xa;" style="edgeStyle=none;rounded=1;html=1;labelBackgroundColor=none;startArrow=none;startFill=0;startSize=5;endArrow=classicThin;endFill=1;endSize=5;jettySize=auto;orthogonalLoop=1;strokeColor=#B3B3B3;strokeWidth=1;fontFamily=Verdana;fontSize=12;entryX=0;entryY=0.75;entryDx=0;entryDy=0;exitX=0.5;exitY=1;exitDx=0;exitDy=0;" parent="1" source="2c924340bb9dbf6c-59" target="1oA8xBJ8QGd1Spcs3NDZ-115" edge="1">
          <mxGeometry x="0.5313" y="-13" relative="1" as="geometry">
            <mxPoint x="770" y="-180" as="sourcePoint" />
            <mxPoint x="770" y="-20" as="targetPoint" />
            <Array as="points">
              <mxPoint x="950" y="-30" />
            </Array>
            <mxPoint as="offset" />
          </mxGeometry>
        </mxCell>
        <mxCell id="1oA8xBJ8QGd1Spcs3NDZ-162" value="&lt;div&gt;&lt;span style=&quot;font-size: 12pt&quot;&gt; &lt;/span&gt;&lt;span style=&quot;font-size: 7.97pt ; font-family: &amp;#34;cmr8&amp;#34;&quot;&gt;bio-inspired model&lt;/span&gt;&lt;/div&gt;" style="edgeLabel;html=1;align=center;verticalAlign=middle;resizable=0;points=[];" parent="1oA8xBJ8QGd1Spcs3NDZ-131" vertex="1" connectable="0">
          <mxGeometry x="-0.035" y="-4" relative="1" as="geometry">
            <mxPoint x="48" y="29" as="offset" />
          </mxGeometry>
        </mxCell>
        <mxCell id="1oA8xBJ8QGd1Spcs3NDZ-134" value="" style="edgeStyle=none;rounded=1;html=1;labelBackgroundColor=none;startArrow=none;startFill=0;startSize=5;endArrow=classicThin;endFill=1;endSize=5;jettySize=auto;orthogonalLoop=1;strokeColor=#B3B3B3;strokeWidth=1;fontFamily=Verdana;fontSize=12;entryX=0.5;entryY=0;entryDx=0;entryDy=0;" parent="1" target="2c924340bb9dbf6c-69" edge="1">
          <mxGeometry relative="1" as="geometry">
            <mxPoint x="600" y="-110" as="sourcePoint" />
            <mxPoint x="460" y="49.99999999999977" as="targetPoint" />
          </mxGeometry>
        </mxCell>
        <mxCell id="1oA8xBJ8QGd1Spcs3NDZ-135" value="&lt;span&gt;DD-Stream&amp;nbsp;&lt;/span&gt;" style="whiteSpace=wrap;html=1;rounded=1;shadow=1;comic=0;labelBackgroundColor=none;strokeWidth=2;fontFamily=Verdana;fontSize=12;align=center;arcSize=50;" parent="1" vertex="1">
          <mxGeometry x="640" y="370" width="100" height="20" as="geometry" />
        </mxCell>
        <mxCell id="1oA8xBJ8QGd1Spcs3NDZ-136" value="&lt;div&gt;&lt;span style=&quot;font-size: 12pt&quot;&gt; &lt;/span&gt;&lt;span style=&quot;font-size: 9.963pt ; font-family: &amp;#34;cmsl10&amp;#34; ; font-style: italic&quot;&gt;D-Stream II&lt;/span&gt;&lt;/div&gt;" style="whiteSpace=wrap;html=1;rounded=1;shadow=1;comic=0;labelBackgroundColor=none;strokeWidth=2;fontFamily=Verdana;fontSize=12;align=center;arcSize=50;" parent="1" vertex="1">
          <mxGeometry x="400" y="360" width="100" height="20" as="geometry" />
        </mxCell>
        <mxCell id="1oA8xBJ8QGd1Spcs3NDZ-139" value="&lt;div&gt;&lt;span style=&quot;font-size: 9.963pt ; font-family: &amp;#34;cmsl10&amp;#34; ; font-style: italic&quot;&gt;PKS-Stream&lt;/span&gt;&lt;/div&gt;" style="whiteSpace=wrap;html=1;rounded=1;shadow=1;comic=0;labelBackgroundColor=none;strokeWidth=2;fontFamily=Verdana;fontSize=12;align=center;arcSize=50;" parent="1" vertex="1">
          <mxGeometry x="260" y="290" width="100" height="20" as="geometry" />
        </mxCell>
        <mxCell id="1oA8xBJ8QGd1Spcs3NDZ-144" value="&lt;div&gt;&lt;span style=&quot;font-size: 9.963pt ; font-family: &amp;#34;cmsl10&amp;#34; ; font-style: italic&quot;&gt;DCUStream&lt;/span&gt;&lt;/div&gt;" style="whiteSpace=wrap;html=1;rounded=1;shadow=1;comic=0;labelBackgroundColor=none;strokeWidth=2;fontFamily=Verdana;fontSize=12;align=center;arcSize=50;" parent="1" vertex="1">
          <mxGeometry x="930" y="240" width="100" height="20" as="geometry" />
        </mxCell>
        <mxCell id="1oA8xBJ8QGd1Spcs3NDZ-145" value="&#xa;&#xa;&#xa;&lt;div&gt;&lt;span style=&quot;font-size: 8.4682pt ; font-family: &amp;quot;advpcourier&amp;quot; ; color: rgb(0 , 0 , 0)&quot;&gt;HDCStream&lt;/span&gt;&lt;/div&gt;&#xa;&#xa;&#xa;" style="whiteSpace=wrap;html=1;rounded=1;shadow=1;comic=0;labelBackgroundColor=none;strokeWidth=2;fontFamily=Verdana;fontSize=12;align=center;arcSize=50;" parent="1" vertex="1">
          <mxGeometry x="905" y="350" width="110" height="30" as="geometry" />
        </mxCell>
        <mxCell id="1oA8xBJ8QGd1Spcs3NDZ-152" value="&lt;div&gt;&lt;span style=&quot;font-size: 9.963pt ; font-family: &amp;#34;cmsl10&amp;#34; ; font-style: italic&quot;&gt;ExCC&lt;/span&gt;&lt;/div&gt;" style="whiteSpace=wrap;html=1;rounded=1;shadow=1;comic=0;labelBackgroundColor=none;strokeWidth=2;fontFamily=Verdana;fontSize=12;align=center;arcSize=50;" parent="1" vertex="1">
          <mxGeometry x="930" y="190" width="100" height="20" as="geometry" />
        </mxCell>
        <mxCell id="1oA8xBJ8QGd1Spcs3NDZ-153" value="" style="edgeStyle=none;rounded=1;html=1;labelBackgroundColor=none;startArrow=none;startFill=0;startSize=5;endArrow=classicThin;endFill=1;endSize=5;jettySize=auto;orthogonalLoop=1;strokeColor=#B3B3B3;strokeWidth=1;fontFamily=Verdana;fontSize=12;entryX=0.5;entryY=0;entryDx=0;entryDy=0;exitX=0.25;exitY=1;exitDx=0;exitDy=0;" parent="1" source="2c924340bb9dbf6c-69" target="1oA8xBJ8QGd1Spcs3NDZ-136" edge="1">
          <mxGeometry relative="1" as="geometry">
            <mxPoint x="600" y="220" as="sourcePoint" />
            <mxPoint x="619.579073962718" y="219.99999999999977" as="targetPoint" />
          </mxGeometry>
        </mxCell>
        <mxCell id="1oA8xBJ8QGd1Spcs3NDZ-178" value="&lt;font style=&quot;font-size: 11px&quot;&gt;considering positional&amp;nbsp;&lt;br style=&quot;font-size: 11px&quot;&gt;Information of Data points&lt;br style=&quot;font-size: 11px&quot;&gt;(&lt;span style=&quot;font-family: &amp;#34;cmr8&amp;#34; ; font-size: 11px&quot;&gt;grid attraction&lt;/span&gt;)&lt;/font&gt;" style="edgeLabel;html=1;align=center;verticalAlign=middle;resizable=0;points=[];" parent="1oA8xBJ8QGd1Spcs3NDZ-153" vertex="1" connectable="0">
          <mxGeometry x="0.5927" relative="1" as="geometry">
            <mxPoint x="28" y="-33" as="offset" />
          </mxGeometry>
        </mxCell>
        <mxCell id="1oA8xBJ8QGd1Spcs3NDZ-154" value="Considering Boundary&amp;nbsp;&lt;br&gt;Data points" style="edgeStyle=none;rounded=1;html=1;labelBackgroundColor=none;startArrow=none;startFill=0;startSize=5;endArrow=classicThin;endFill=1;endSize=5;jettySize=auto;orthogonalLoop=1;strokeColor=#B3B3B3;strokeWidth=1;fontFamily=Verdana;fontSize=12;entryX=0.5;entryY=0;entryDx=0;entryDy=0;exitX=0.352;exitY=1.191;exitDx=0;exitDy=0;exitPerimeter=0;" parent="1" source="2c924340bb9dbf6c-69" target="1oA8xBJ8QGd1Spcs3NDZ-135" edge="1">
          <mxGeometry relative="1" as="geometry">
            <mxPoint x="615" y="239.99999999999977" as="sourcePoint" />
            <mxPoint x="440" y="269.9999999999998" as="targetPoint" />
          </mxGeometry>
        </mxCell>
        <mxCell id="1oA8xBJ8QGd1Spcs3NDZ-156" value="&lt;p class=&quot;MsoNormal&quot;&gt;&lt;i&gt;&lt;span style=&quot;font-style: italic ; font-size: 12.0000pt&quot;&gt;&lt;font face=&quot;Calibri&quot;&gt;LOCALSERACH algorithm&lt;/font&gt;&lt;/span&gt;&lt;/i&gt;&lt;/p&gt;" style="text;whiteSpace=wrap;html=1;" parent="1" vertex="1">
          <mxGeometry x="20" y="-600" width="120" height="50" as="geometry" />
        </mxCell>
        <mxCell id="1oA8xBJ8QGd1Spcs3NDZ-165" value="clustering high &lt;br&gt;dimensional data streams&amp;nbsp;" style="edgeStyle=none;rounded=1;html=1;labelBackgroundColor=none;startArrow=none;startFill=0;startSize=5;endArrow=classicThin;endFill=1;endSize=5;jettySize=auto;orthogonalLoop=1;strokeColor=#B3B3B3;strokeWidth=1;fontFamily=Verdana;fontSize=12;entryX=0.5;entryY=1;entryDx=0;entryDy=0;exitX=0.25;exitY=0;exitDx=0;exitDy=0;" parent="1" source="1oA8xBJ8QGd1Spcs3NDZ-136" target="1oA8xBJ8QGd1Spcs3NDZ-139" edge="1">
          <mxGeometry x="0.434" y="6" relative="1" as="geometry">
            <mxPoint x="430" y="370" as="sourcePoint" />
            <mxPoint x="460" y="369.9999999999998" as="targetPoint" />
            <mxPoint x="-1" as="offset" />
          </mxGeometry>
        </mxCell>
        <mxCell id="1oA8xBJ8QGd1Spcs3NDZ-169" value="Clustering uncertain &lt;br&gt;data streams" style="edgeStyle=none;rounded=1;html=1;labelBackgroundColor=none;startArrow=none;startFill=0;startSize=5;endArrow=classicThin;endFill=1;endSize=5;jettySize=auto;orthogonalLoop=1;strokeColor=#B3B3B3;strokeWidth=1;fontFamily=Verdana;fontSize=12;entryX=0;entryY=0.5;entryDx=0;entryDy=0;exitX=1;exitY=0.75;exitDx=0;exitDy=0;" parent="1" source="2c924340bb9dbf6c-69" target="1oA8xBJ8QGd1Spcs3NDZ-144" edge="1">
          <mxGeometry x="0.2792" y="1" relative="1" as="geometry">
            <mxPoint x="715" y="368.2258064516127" as="sourcePoint" />
            <mxPoint x="770" y="371.7741935483871" as="targetPoint" />
            <mxPoint as="offset" />
          </mxGeometry>
        </mxCell>
        <mxCell id="1oA8xBJ8QGd1Spcs3NDZ-171" value="" style="edgeStyle=none;rounded=1;html=1;labelBackgroundColor=none;startArrow=none;startFill=0;startSize=5;endArrow=classicThin;endFill=1;endSize=5;jettySize=auto;orthogonalLoop=1;strokeColor=#B3B3B3;strokeWidth=1;fontFamily=Verdana;fontSize=12;entryX=0;entryY=0.5;entryDx=0;entryDy=0;" parent="1" target="1oA8xBJ8QGd1Spcs3NDZ-152" edge="1">
          <mxGeometry relative="1" as="geometry">
            <mxPoint x="680" y="220" as="sourcePoint" />
            <mxPoint x="805" y="450" as="targetPoint" />
          </mxGeometry>
        </mxCell>
        <mxCell id="1oA8xBJ8QGd1Spcs3NDZ-176" value="clustering&lt;br&gt;heterogenous data streams&lt;br&gt;(&lt;span style=&quot;font-family: &amp;#34;cmr8&amp;#34; ; font-size: 7.97pt&quot;&gt;categorical data&lt;/span&gt;)" style="edgeLabel;html=1;align=center;verticalAlign=middle;resizable=0;points=[];" parent="1oA8xBJ8QGd1Spcs3NDZ-171" vertex="1" connectable="0">
          <mxGeometry x="0.3073" y="-1" relative="1" as="geometry">
            <mxPoint x="1" y="-18" as="offset" />
          </mxGeometry>
        </mxCell>
        <mxCell id="1oA8xBJ8QGd1Spcs3NDZ-172" value="clustering over &lt;br&gt;sliding window" style="edgeStyle=none;rounded=1;html=1;labelBackgroundColor=none;startArrow=none;startFill=0;startSize=5;endArrow=classicThin;endFill=1;endSize=5;jettySize=auto;orthogonalLoop=1;strokeColor=#B3B3B3;strokeWidth=1;fontFamily=Verdana;fontSize=12;exitX=0.87;exitY=1.05;exitDx=0;exitDy=0;exitPerimeter=0;entryX=0.172;entryY=-0.045;entryDx=0;entryDy=0;entryPerimeter=0;" parent="1" source="2c924340bb9dbf6c-69" target="1oA8xBJ8QGd1Spcs3NDZ-145" edge="1">
          <mxGeometry relative="1" as="geometry">
            <mxPoint x="725" y="400" as="sourcePoint" />
            <mxPoint x="910" y="360" as="targetPoint" />
          </mxGeometry>
        </mxCell>
        <mxCell id="1oA8xBJ8QGd1Spcs3NDZ-180" value="&lt;div&gt;&lt;span style=&quot;font-size: 8.4682pt ; font-family: &amp;#34;advpcourier&amp;#34;&quot;&gt;HCluStream&lt;/span&gt;&lt;/div&gt;" style="whiteSpace=wrap;html=1;rounded=1;shadow=1;comic=0;labelBackgroundColor=none;strokeWidth=2;fontFamily=Verdana;fontSize=12;align=center;arcSize=50;" parent="1" vertex="1">
          <mxGeometry x="890" y="-680" width="95" height="20" as="geometry" />
        </mxCell>
        <mxCell id="1oA8xBJ8QGd1Spcs3NDZ-182" value="&amp;nbsp;" style="edgeStyle=none;rounded=1;html=1;labelBackgroundColor=none;startArrow=none;startFill=0;startSize=5;endArrow=classicThin;endFill=1;endSize=5;jettySize=auto;orthogonalLoop=1;strokeColor=#B3B3B3;strokeWidth=1;fontFamily=Verdana;fontSize=12;exitX=1;exitY=0.75;exitDx=0;exitDy=0;entryX=0;entryY=0.75;entryDx=0;entryDy=0;" parent="1" source="2c924340bb9dbf6c-11" target="1oA8xBJ8QGd1Spcs3NDZ-180" edge="1">
          <mxGeometry x="0.2742" y="2" relative="1" as="geometry">
            <mxPoint x="765" y="-645" as="sourcePoint" />
            <mxPoint x="935.0999999999999" y="-559.01" as="targetPoint" />
            <mxPoint as="offset" />
          </mxGeometry>
        </mxCell>
        <mxCell id="1oA8xBJ8QGd1Spcs3NDZ-183" value="&lt;span style=&quot;color: rgba(0 , 0 , 0 , 0) ; font-family: monospace ; font-size: 0px ; background-color: rgb(248 , 249 , 250)&quot;&gt;%3CmxGraphModel%3E%3Croot%3E%3CmxCell%20id%3D%220%22%2F%3E%3CmxCell%20id%3D%221%22%20parent%3D%220%22%2F%3E%3CmxCell%20id%3D%222%22%20value%3D%22%26%2310%3B%26%2310%3B%26lt%3Bspan%20style%3D%26quot%3Bcolor%3A%20rgb(0%2C%200%2C%200)%3B%20font-family%3A%20helvetica%3B%20font-size%3A%2011px%3B%20font-style%3A%20normal%3B%20font-weight%3A%20400%3B%20letter-spacing%3A%20normal%3B%20text-align%3A%20center%3B%20text-indent%3A%200px%3B%20text-transform%3A%20none%3B%20word-spacing%3A%200px%3B%20background-color%3A%20rgb(255%2C%20255%2C%20255)%3B%20display%3A%20inline%3B%20float%3A%20none%3B%26quot%3B%26gt%3BExtended%20from%20CluStream%26lt%3B%2Fspan%26gt%3B%26%2310%3B%26%2310%3B%22%20style%3D%22edgeStyle%3Dnone%3Brounded%3D1%3Bhtml%3D1%3BlabelBackgroundColor%3Dnone%3BstartArrow%3Dnone%3BstartFill%3D0%3BstartSize%3D5%3BendArrow%3DclassicThin%3BendFill%3D1%3BendSize%3D5%3BjettySize%3Dauto%3BorthogonalLoop%3D1%3BstrokeColor%3D%23B3B3B3%3BstrokeWidth%3D1%3BfontFamily%3DVerdana%3BfontSize%3D12%3BentryX%3D0.5%3BentryY%3D1%3BentryDx%3D0%3BentryDy%3D0%3BexitX%3D0.606%3BexitY%3D-0.112%3BexitDx%3D0%3BexitDy%3D0%3BexitPerimeter%3D0%3B%22%20edge%3D%221%22%20parent%3D%221%22%3E%3CmxGeometry%20x%3D%220.6614%22%20y%3D%22-20%22%20relative%3D%221%22%20as%3D%22geometry%22%3E%3CmxPoint%20x%3D%22800.5999999999999%22%20y%3D%2242.75999999999999%22%20as%3D%22sourcePoint%22%2F%3E%3CmxPoint%20x%3D%22905%22%20y%3D%22-40.00000000000023%22%20as%3D%22targetPoint%22%2F%3E%3CmxPoint%20as%3D%22offset%22%2F%3E%3C%2FmxGeometry%3E%3C%2FmxCell%3E%3C%2Froot%3E%3C%2FmxGraphModel%3E&lt;/span&gt;" style="edgeLabel;html=1;align=center;verticalAlign=middle;resizable=0;points=[];" parent="1oA8xBJ8QGd1Spcs3NDZ-182" vertex="1" connectable="0">
          <mxGeometry x="-0.1967" relative="1" as="geometry">
            <mxPoint as="offset" />
          </mxGeometry>
        </mxCell>
        <mxCell id="1oA8xBJ8QGd1Spcs3NDZ-184" value="&lt;span style=&quot;color: rgba(0 , 0 , 0 , 0) ; font-family: monospace ; font-size: 0px ; background-color: rgb(248 , 249 , 250)&quot;&gt;%3CmxGraphModel%3E%3Croot%3E%3CmxCell%20id%3D%220%22%2F%3E%3CmxCell%20id%3D%221%22%20parent%3D%220%22%2F%3E%3CmxCell%20id%3D%222%22%20value%3D%22%26%2310%3B%26%2310%3B%26lt%3Bspan%20style%3D%26quot%3Bcolor%3A%20rgb(0%2C%200%2C%200)%3B%20font-family%3A%20helvetica%3B%20font-size%3A%2011px%3B%20font-style%3A%20normal%3B%20font-weight%3A%20400%3B%20letter-spacing%3A%20normal%3B%20text-align%3A%20center%3B%20text-indent%3A%200px%3B%20text-transform%3A%20none%3B%20word-spacing%3A%200px%3B%20background-color%3A%20rgb(255%2C%20255%2C%20255)%3B%20display%3A%20inline%3B%20float%3A%20none%3B%26quot%3B%26gt%3BExtended%20from%20CluStream%26lt%3B%2Fspan%26gt%3B%26%2310%3B%26%2310%3B%22%20style%3D%22edgeStyle%3Dnone%3Brounded%3D1%3Bhtml%3D1%3BlabelBackgroundColor%3Dnone%3BstartArrow%3Dnone%3BstartFill%3D0%3BstartSize%3D5%3BendArrow%3DclassicThin%3BendFill%3D1%3BendSize%3D5%3BjettySize%3Dauto%3BorthogonalLoop%3D1%3BstrokeColor%3D%23B3B3B3%3BstrokeWidth%3D1%3BfontFamily%3DVerdana%3BfontSize%3D12%3BentryX%3D0.5%3BentryY%3D1%3BentryDx%3D0%3BentryDy%3D0%3BexitX%3D0.606%3BexitY%3D-0.112%3BexitDx%3D0%3BexitDy%3D0%3BexitPerimeter%3D0%3B%22%20edge%3D%221%22%20parent%3D%221%22%3E%3CmxGeometry%20x%3D%220.6614%22%20y%3D%22-20%22%20relative%3D%221%22%20as%3D%22geometry%22%3E%3CmxPoint%20x%3D%22800.5999999999999%22%20y%3D%2242.75999999999999%22%20as%3D%22sourcePoint%22%2F%3E%3CmxPoint%20x%3D%22905%22%20y%3D%22-40.00000000000023%22%20as%3D%22targetPoint%22%2F%3E%3CmxPoint%20as%3D%22offset%22%2F%3E%3C%2FmxGeometry%3E%3C%2FmxCell%3E%3C%2Froot%3E%3C%2FmxGraphModel%3E&lt;/span&gt;&lt;span style=&quot;color: rgba(0 , 0 , 0 , 0) ; font-family: monospace ; font-size: 0px ; background-color: rgb(248 , 249 , 250)&quot;&gt;%3CmxGraphModel%3E%3Croot%3E%3CmxCell%20id%3D%220%22%2F%3E%3CmxCell%20id%3D%221%22%20parent%3D%220%22%2F%3E%3CmxCell%20id%3D%222%22%20value%3D%22%26%2310%3B%26%2310%3B%26lt%3Bspan%20style%3D%26quot%3Bcolor%3A%20rgb(0%2C%200%2C%200)%3B%20font-family%3A%20helvetica%3B%20font-size%3A%2011px%3B%20font-style%3A%20normal%3B%20font-weight%3A%20400%3B%20letter-spacing%3A%20normal%3B%20text-align%3A%20center%3B%20text-indent%3A%200px%3B%20text-transform%3A%20none%3B%20word-spacing%3A%200px%3B%20background-color%3A%20rgb(255%2C%20255%2C%20255)%3B%20display%3A%20inline%3B%20float%3A%20none%3B%26quot%3B%26gt%3BExtended%20from%20CluStream%26lt%3B%2Fspan%26gt%3B%26%2310%3B%26%2310%3B%22%20style%3D%22edgeStyle%3Dnone%3Brounded%3D1%3Bhtml%3D1%3BlabelBackgroundColor%3Dnone%3BstartArrow%3Dnone%3BstartFill%3D0%3BstartSize%3D5%3BendArrow%3DclassicThin%3BendFill%3D1%3BendSize%3D5%3BjettySize%3Dauto%3BorthogonalLoop%3D1%3BstrokeColor%3D%23B3B3B3%3BstrokeWidth%3D1%3BfontFamily%3DVerdana%3BfontSize%3D12%3BentryX%3D0.5%3BentryY%3D1%3BentryDx%3D0%3BentryDy%3D0%3BexitX%3D0.606%3BexitY%3D-0.112%3BexitDx%3D0%3BexitDy%3D0%3BexitPerimeter%3D0%3B%22%20edge%3D%221%22%20parent%3D%221%22%3E%3CmxGeometry%20x%3D%220.6614%22%20y%3D%22-20%22%20relative%3D%221%22%20as%3D%22geometry%22%3E%3CmxPoint%20x%3D%22800.5999999999999%22%20y%3D%2242.75999999999999%22%20as%3D%22sourcePoint%22%2F%3E%3CmxPoint%20x%3D%22905%22%20y%3D%22-40.00000000000023%22%20as%3D%22targetPoint%22%2F%3E%3CmxPoint%20as%3D%22offset%22%2F%3E%3C%2FmxGeometry%3E%3C%2FmxCell%3E%3C%2Froot%3E%3C%2FmxGraphModel%3E&lt;/span&gt;" style="edgeLabel;html=1;align=center;verticalAlign=middle;resizable=0;points=[];" parent="1oA8xBJ8QGd1Spcs3NDZ-182" vertex="1" connectable="0">
          <mxGeometry x="-0.2298" y="-1" relative="1" as="geometry">
            <mxPoint as="offset" />
          </mxGeometry>
        </mxCell>
        <mxCell id="1oA8xBJ8QGd1Spcs3NDZ-187" value="&lt;div&gt;&lt;span style=&quot;font-size: 8.4682pt ; font-family: &amp;#34;advpcourier&amp;#34;&quot;&gt;HUE-Stream&lt;/span&gt;&lt;/div&gt;" style="whiteSpace=wrap;html=1;rounded=1;shadow=1;comic=0;labelBackgroundColor=none;strokeWidth=2;fontFamily=Verdana;fontSize=12;align=center;arcSize=50;" parent="1" vertex="1">
          <mxGeometry x="430" y="-800" width="110" height="20" as="geometry" />
        </mxCell>
        <mxCell id="1oA8xBJ8QGd1Spcs3NDZ-189" value="" style="edgeStyle=none;rounded=1;html=1;labelBackgroundColor=none;startArrow=none;startFill=0;startSize=5;endArrow=classicThin;endFill=1;endSize=5;jettySize=auto;orthogonalLoop=1;strokeColor=#B3B3B3;strokeWidth=1;fontFamily=Verdana;fontSize=12;entryX=1;entryY=0.75;entryDx=0;entryDy=0;exitX=0;exitY=0.75;exitDx=0;exitDy=0;" parent="1" source="1oA8xBJ8QGd1Spcs3NDZ-30" target="1oA8xBJ8QGd1Spcs3NDZ-187" edge="1">
          <mxGeometry relative="1" as="geometry">
            <mxPoint x="615.0856535413923" y="-596.5524619448101" as="sourcePoint" />
            <mxPoint x="587.5757575757575" y="-632.5" as="targetPoint" />
          </mxGeometry>
        </mxCell>
        <mxCell id="1oA8xBJ8QGd1Spcs3NDZ-190" value="&lt;div&gt;&lt;span style=&quot;font-size: 8.4682pt ; font-family: &amp;#34;advpcourier&amp;#34;&quot;&gt;LiarTree&lt;/span&gt;&lt;/div&gt;" style="whiteSpace=wrap;html=1;rounded=1;shadow=1;comic=0;labelBackgroundColor=none;strokeWidth=2;fontFamily=Verdana;fontSize=12;align=center;arcSize=50;" parent="1" vertex="1">
          <mxGeometry x="260" y="-610" width="100" height="20" as="geometry" />
        </mxCell>
        <mxCell id="1oA8xBJ8QGd1Spcs3NDZ-191" value="" style="edgeStyle=none;rounded=1;html=1;labelBackgroundColor=none;startArrow=none;startFill=0;startSize=5;endArrow=classicThin;endFill=1;endSize=5;jettySize=auto;orthogonalLoop=1;strokeColor=#B3B3B3;strokeWidth=1;fontFamily=Verdana;fontSize=12;exitX=0;exitY=0.5;exitDx=0;exitDy=0;entryX=1;entryY=0.75;entryDx=0;entryDy=0;" parent="1" source="2c924340bb9dbf6c-15" target="1oA8xBJ8QGd1Spcs3NDZ-190" edge="1">
          <mxGeometry relative="1" as="geometry">
            <mxPoint x="577.6792116830516" y="-571.1576766775074" as="sourcePoint" />
            <mxPoint x="520" y="-581.304347826087" as="targetPoint" />
          </mxGeometry>
        </mxCell>
        <mxCell id="1oA8xBJ8QGd1Spcs3NDZ-192" value="&lt;div style=&quot;text-align: left&quot;&gt;&lt;div&gt;&lt;span style=&quot;font-size: 8.4682pt ; font-family: &amp;#34;advpcourier&amp;#34;&quot;&gt;DBSTREAM&lt;/span&gt;&lt;/div&gt;&lt;/div&gt;" style="whiteSpace=wrap;html=1;rounded=1;shadow=1;comic=0;labelBackgroundColor=none;strokeWidth=2;fontFamily=Verdana;fontSize=12;align=center;arcSize=50;" parent="1" vertex="1">
          <mxGeometry x="830" y="70" width="100" height="20" as="geometry" />
        </mxCell>
        <mxCell id="1oA8xBJ8QGd1Spcs3NDZ-194" value="&lt;div style=&quot;text-align: left&quot;&gt;&lt;span style=&quot;font-family: &amp;#34;advpcourier&amp;#34; ; font-size: 11.2909px&quot;&gt;evoStream&lt;/span&gt;&lt;br&gt;&lt;/div&gt;" style="whiteSpace=wrap;html=1;rounded=1;shadow=1;comic=0;labelBackgroundColor=none;strokeWidth=2;fontFamily=Verdana;fontSize=12;align=center;arcSize=50;" parent="1" vertex="1">
          <mxGeometry x="1000" y="110" width="100" height="20" as="geometry" />
        </mxCell>
        <mxCell id="1oA8xBJ8QGd1Spcs3NDZ-195" value="Performing offline&amp;nbsp; phase&amp;nbsp;&lt;br&gt;in Constant time" style="edgeStyle=none;rounded=1;html=1;labelBackgroundColor=none;startArrow=none;startFill=0;startSize=5;endArrow=classicThin;endFill=1;endSize=5;jettySize=auto;orthogonalLoop=1;strokeColor=#B3B3B3;strokeWidth=1;fontFamily=Verdana;fontSize=12;exitX=0.932;exitY=0.11;exitDx=0;exitDy=0;exitPerimeter=0;" parent="1" edge="1" source="2c924340bb9dbf6c-69">
          <mxGeometry x="0.0708" y="29" relative="1" as="geometry">
            <mxPoint x="665" y="220" as="sourcePoint" />
            <mxPoint x="880" y="140" as="targetPoint" />
            <mxPoint as="offset" />
          </mxGeometry>
        </mxCell>
        <mxCell id="1oA8xBJ8QGd1Spcs3NDZ-197" value="" style="edgeStyle=none;rounded=1;html=1;labelBackgroundColor=none;startArrow=none;startFill=0;startSize=5;endArrow=classicThin;endFill=1;endSize=5;jettySize=auto;orthogonalLoop=1;strokeColor=#B3B3B3;strokeWidth=1;fontFamily=Verdana;fontSize=12;exitX=1;exitY=0.5;exitDx=0;exitDy=0;entryX=0;entryY=0.25;entryDx=0;entryDy=0;" parent="1" source="1oA8xBJ8QGd1Spcs3NDZ-192" target="1oA8xBJ8QGd1Spcs3NDZ-194" edge="1">
          <mxGeometry x="0.0708" y="29" relative="1" as="geometry">
            <mxPoint x="675" y="230" as="sourcePoint" />
            <mxPoint x="890" y="150" as="targetPoint" />
            <mxPoint as="offset" />
          </mxGeometry>
        </mxCell>
        <mxCell id="1oA8xBJ8QGd1Spcs3NDZ-199" value="&lt;div&gt;&lt;b&gt;&lt;span style=&quot;font-size: 8.4682pt ; font-family: &amp;#34;advpcourier&amp;#34;&quot;&gt;StreamKM&lt;/span&gt;&lt;span style=&quot;font-size: 8.4682pt&quot;&gt;&lt;font face=&quot;AdvTir_symb&quot;&gt;++&lt;/font&gt;&lt;/span&gt;&lt;/b&gt;&lt;/div&gt;" style="whiteSpace=wrap;html=1;rounded=1;shadow=1;comic=0;labelBackgroundColor=none;strokeWidth=2;fontFamily=Verdana;fontSize=12;align=center;arcSize=50;" parent="1" vertex="1">
          <mxGeometry x="950" y="-780" width="110" height="20" as="geometry" />
        </mxCell>
        <mxCell id="1oA8xBJ8QGd1Spcs3NDZ-201" value="&lt;div&gt;&lt;font face=&quot;advpcourier&quot;&gt;&lt;span style=&quot;font-size: 11.2909px&quot;&gt;&lt;b&gt;BICO&lt;/b&gt;&lt;/span&gt;&lt;/font&gt;&lt;/div&gt;" style="whiteSpace=wrap;html=1;rounded=1;shadow=1;comic=0;labelBackgroundColor=none;strokeWidth=2;fontFamily=Verdana;fontSize=12;align=center;arcSize=50;" parent="1" vertex="1">
          <mxGeometry x="1110" y="-780" width="110" height="20" as="geometry" />
        </mxCell>
        <mxCell id="1oA8xBJ8QGd1Spcs3NDZ-202" value="&amp;nbsp;" style="edgeStyle=none;rounded=1;html=1;labelBackgroundColor=none;startArrow=none;startFill=0;startSize=5;endArrow=classicThin;endFill=1;endSize=5;jettySize=auto;orthogonalLoop=1;strokeColor=#B3B3B3;strokeWidth=1;fontFamily=Verdana;fontSize=12;exitX=1;exitY=0.5;exitDx=0;exitDy=0;entryX=0;entryY=0.5;entryDx=0;entryDy=0;" parent="1" source="1oA8xBJ8QGd1Spcs3NDZ-20" target="1oA8xBJ8QGd1Spcs3NDZ-199" edge="1">
          <mxGeometry x="0.2742" y="2" relative="1" as="geometry">
            <mxPoint x="790" y="-650" as="sourcePoint" />
            <mxPoint x="900" y="-655" as="targetPoint" />
            <mxPoint as="offset" />
          </mxGeometry>
        </mxCell>
        <mxCell id="1oA8xBJ8QGd1Spcs3NDZ-203" value="&lt;span style=&quot;color: rgba(0 , 0 , 0 , 0) ; font-family: monospace ; font-size: 0px ; background-color: rgb(248 , 249 , 250)&quot;&gt;%3CmxGraphModel%3E%3Croot%3E%3CmxCell%20id%3D%220%22%2F%3E%3CmxCell%20id%3D%221%22%20parent%3D%220%22%2F%3E%3CmxCell%20id%3D%222%22%20value%3D%22%26%2310%3B%26%2310%3B%26lt%3Bspan%20style%3D%26quot%3Bcolor%3A%20rgb(0%2C%200%2C%200)%3B%20font-family%3A%20helvetica%3B%20font-size%3A%2011px%3B%20font-style%3A%20normal%3B%20font-weight%3A%20400%3B%20letter-spacing%3A%20normal%3B%20text-align%3A%20center%3B%20text-indent%3A%200px%3B%20text-transform%3A%20none%3B%20word-spacing%3A%200px%3B%20background-color%3A%20rgb(255%2C%20255%2C%20255)%3B%20display%3A%20inline%3B%20float%3A%20none%3B%26quot%3B%26gt%3BExtended%20from%20CluStream%26lt%3B%2Fspan%26gt%3B%26%2310%3B%26%2310%3B%22%20style%3D%22edgeStyle%3Dnone%3Brounded%3D1%3Bhtml%3D1%3BlabelBackgroundColor%3Dnone%3BstartArrow%3Dnone%3BstartFill%3D0%3BstartSize%3D5%3BendArrow%3DclassicThin%3BendFill%3D1%3BendSize%3D5%3BjettySize%3Dauto%3BorthogonalLoop%3D1%3BstrokeColor%3D%23B3B3B3%3BstrokeWidth%3D1%3BfontFamily%3DVerdana%3BfontSize%3D12%3BentryX%3D0.5%3BentryY%3D1%3BentryDx%3D0%3BentryDy%3D0%3BexitX%3D0.606%3BexitY%3D-0.112%3BexitDx%3D0%3BexitDy%3D0%3BexitPerimeter%3D0%3B%22%20edge%3D%221%22%20parent%3D%221%22%3E%3CmxGeometry%20x%3D%220.6614%22%20y%3D%22-20%22%20relative%3D%221%22%20as%3D%22geometry%22%3E%3CmxPoint%20x%3D%22800.5999999999999%22%20y%3D%2242.75999999999999%22%20as%3D%22sourcePoint%22%2F%3E%3CmxPoint%20x%3D%22905%22%20y%3D%22-40.00000000000023%22%20as%3D%22targetPoint%22%2F%3E%3CmxPoint%20as%3D%22offset%22%2F%3E%3C%2FmxGeometry%3E%3C%2FmxCell%3E%3C%2Froot%3E%3C%2FmxGraphModel%3E&lt;/span&gt;" style="edgeLabel;html=1;align=center;verticalAlign=middle;resizable=0;points=[];" parent="1oA8xBJ8QGd1Spcs3NDZ-202" vertex="1" connectable="0">
          <mxGeometry x="-0.1967" relative="1" as="geometry">
            <mxPoint as="offset" />
          </mxGeometry>
        </mxCell>
        <mxCell id="1oA8xBJ8QGd1Spcs3NDZ-204" value="&lt;span style=&quot;color: rgba(0 , 0 , 0 , 0) ; font-family: monospace ; font-size: 0px ; background-color: rgb(248 , 249 , 250)&quot;&gt;%3CmxGraphModel%3E%3Croot%3E%3CmxCell%20id%3D%220%22%2F%3E%3CmxCell%20id%3D%221%22%20parent%3D%220%22%2F%3E%3CmxCell%20id%3D%222%22%20value%3D%22%26%2310%3B%26%2310%3B%26lt%3Bspan%20style%3D%26quot%3Bcolor%3A%20rgb(0%2C%200%2C%200)%3B%20font-family%3A%20helvetica%3B%20font-size%3A%2011px%3B%20font-style%3A%20normal%3B%20font-weight%3A%20400%3B%20letter-spacing%3A%20normal%3B%20text-align%3A%20center%3B%20text-indent%3A%200px%3B%20text-transform%3A%20none%3B%20word-spacing%3A%200px%3B%20background-color%3A%20rgb(255%2C%20255%2C%20255)%3B%20display%3A%20inline%3B%20float%3A%20none%3B%26quot%3B%26gt%3BExtended%20from%20CluStream%26lt%3B%2Fspan%26gt%3B%26%2310%3B%26%2310%3B%22%20style%3D%22edgeStyle%3Dnone%3Brounded%3D1%3Bhtml%3D1%3BlabelBackgroundColor%3Dnone%3BstartArrow%3Dnone%3BstartFill%3D0%3BstartSize%3D5%3BendArrow%3DclassicThin%3BendFill%3D1%3BendSize%3D5%3BjettySize%3Dauto%3BorthogonalLoop%3D1%3BstrokeColor%3D%23B3B3B3%3BstrokeWidth%3D1%3BfontFamily%3DVerdana%3BfontSize%3D12%3BentryX%3D0.5%3BentryY%3D1%3BentryDx%3D0%3BentryDy%3D0%3BexitX%3D0.606%3BexitY%3D-0.112%3BexitDx%3D0%3BexitDy%3D0%3BexitPerimeter%3D0%3B%22%20edge%3D%221%22%20parent%3D%221%22%3E%3CmxGeometry%20x%3D%220.6614%22%20y%3D%22-20%22%20relative%3D%221%22%20as%3D%22geometry%22%3E%3CmxPoint%20x%3D%22800.5999999999999%22%20y%3D%2242.75999999999999%22%20as%3D%22sourcePoint%22%2F%3E%3CmxPoint%20x%3D%22905%22%20y%3D%22-40.00000000000023%22%20as%3D%22targetPoint%22%2F%3E%3CmxPoint%20as%3D%22offset%22%2F%3E%3C%2FmxGeometry%3E%3C%2FmxCell%3E%3C%2Froot%3E%3C%2FmxGraphModel%3E&lt;/span&gt;&lt;span style=&quot;color: rgba(0 , 0 , 0 , 0) ; font-family: monospace ; font-size: 0px ; background-color: rgb(248 , 249 , 250)&quot;&gt;%3CmxGraphModel%3E%3Croot%3E%3CmxCell%20id%3D%220%22%2F%3E%3CmxCell%20id%3D%221%22%20parent%3D%220%22%2F%3E%3CmxCell%20id%3D%222%22%20value%3D%22%26%2310%3B%26%2310%3B%26lt%3Bspan%20style%3D%26quot%3Bcolor%3A%20rgb(0%2C%200%2C%200)%3B%20font-family%3A%20helvetica%3B%20font-size%3A%2011px%3B%20font-style%3A%20normal%3B%20font-weight%3A%20400%3B%20letter-spacing%3A%20normal%3B%20text-align%3A%20center%3B%20text-indent%3A%200px%3B%20text-transform%3A%20none%3B%20word-spacing%3A%200px%3B%20background-color%3A%20rgb(255%2C%20255%2C%20255)%3B%20display%3A%20inline%3B%20float%3A%20none%3B%26quot%3B%26gt%3BExtended%20from%20CluStream%26lt%3B%2Fspan%26gt%3B%26%2310%3B%26%2310%3B%22%20style%3D%22edgeStyle%3Dnone%3Brounded%3D1%3Bhtml%3D1%3BlabelBackgroundColor%3Dnone%3BstartArrow%3Dnone%3BstartFill%3D0%3BstartSize%3D5%3BendArrow%3DclassicThin%3BendFill%3D1%3BendSize%3D5%3BjettySize%3Dauto%3BorthogonalLoop%3D1%3BstrokeColor%3D%23B3B3B3%3BstrokeWidth%3D1%3BfontFamily%3DVerdana%3BfontSize%3D12%3BentryX%3D0.5%3BentryY%3D1%3BentryDx%3D0%3BentryDy%3D0%3BexitX%3D0.606%3BexitY%3D-0.112%3BexitDx%3D0%3BexitDy%3D0%3BexitPerimeter%3D0%3B%22%20edge%3D%221%22%20parent%3D%221%22%3E%3CmxGeometry%20x%3D%220.6614%22%20y%3D%22-20%22%20relative%3D%221%22%20as%3D%22geometry%22%3E%3CmxPoint%20x%3D%22800.5999999999999%22%20y%3D%2242.75999999999999%22%20as%3D%22sourcePoint%22%2F%3E%3CmxPoint%20x%3D%22905%22%20y%3D%22-40.00000000000023%22%20as%3D%22targetPoint%22%2F%3E%3CmxPoint%20as%3D%22offset%22%2F%3E%3C%2FmxGeometry%3E%3C%2FmxCell%3E%3C%2Froot%3E%3C%2FmxGraphModel%3E&lt;/span&gt;" style="edgeLabel;html=1;align=center;verticalAlign=middle;resizable=0;points=[];" parent="1oA8xBJ8QGd1Spcs3NDZ-202" vertex="1" connectable="0">
          <mxGeometry x="-0.2298" y="-1" relative="1" as="geometry">
            <mxPoint as="offset" />
          </mxGeometry>
        </mxCell>
        <mxCell id="1oA8xBJ8QGd1Spcs3NDZ-205" value="&amp;nbsp;" style="edgeStyle=none;rounded=1;html=1;labelBackgroundColor=none;startArrow=none;startFill=0;startSize=5;endArrow=classicThin;endFill=1;endSize=5;jettySize=auto;orthogonalLoop=1;strokeColor=#B3B3B3;strokeWidth=1;fontFamily=Verdana;fontSize=12;exitX=1;exitY=0.5;exitDx=0;exitDy=0;entryX=0;entryY=0.5;entryDx=0;entryDy=0;" parent="1" source="1oA8xBJ8QGd1Spcs3NDZ-199" target="1oA8xBJ8QGd1Spcs3NDZ-201" edge="1">
          <mxGeometry x="0.2742" y="2" relative="1" as="geometry">
            <mxPoint x="910" y="-760" as="sourcePoint" />
            <mxPoint x="960" y="-760" as="targetPoint" />
            <mxPoint as="offset" />
          </mxGeometry>
        </mxCell>
        <mxCell id="1oA8xBJ8QGd1Spcs3NDZ-206" value="&lt;span style=&quot;color: rgba(0 , 0 , 0 , 0) ; font-family: monospace ; font-size: 0px ; background-color: rgb(248 , 249 , 250)&quot;&gt;%3CmxGraphModel%3E%3Croot%3E%3CmxCell%20id%3D%220%22%2F%3E%3CmxCell%20id%3D%221%22%20parent%3D%220%22%2F%3E%3CmxCell%20id%3D%222%22%20value%3D%22%26%2310%3B%26%2310%3B%26lt%3Bspan%20style%3D%26quot%3Bcolor%3A%20rgb(0%2C%200%2C%200)%3B%20font-family%3A%20helvetica%3B%20font-size%3A%2011px%3B%20font-style%3A%20normal%3B%20font-weight%3A%20400%3B%20letter-spacing%3A%20normal%3B%20text-align%3A%20center%3B%20text-indent%3A%200px%3B%20text-transform%3A%20none%3B%20word-spacing%3A%200px%3B%20background-color%3A%20rgb(255%2C%20255%2C%20255)%3B%20display%3A%20inline%3B%20float%3A%20none%3B%26quot%3B%26gt%3BExtended%20from%20CluStream%26lt%3B%2Fspan%26gt%3B%26%2310%3B%26%2310%3B%22%20style%3D%22edgeStyle%3Dnone%3Brounded%3D1%3Bhtml%3D1%3BlabelBackgroundColor%3Dnone%3BstartArrow%3Dnone%3BstartFill%3D0%3BstartSize%3D5%3BendArrow%3DclassicThin%3BendFill%3D1%3BendSize%3D5%3BjettySize%3Dauto%3BorthogonalLoop%3D1%3BstrokeColor%3D%23B3B3B3%3BstrokeWidth%3D1%3BfontFamily%3DVerdana%3BfontSize%3D12%3BentryX%3D0.5%3BentryY%3D1%3BentryDx%3D0%3BentryDy%3D0%3BexitX%3D0.606%3BexitY%3D-0.112%3BexitDx%3D0%3BexitDy%3D0%3BexitPerimeter%3D0%3B%22%20edge%3D%221%22%20parent%3D%221%22%3E%3CmxGeometry%20x%3D%220.6614%22%20y%3D%22-20%22%20relative%3D%221%22%20as%3D%22geometry%22%3E%3CmxPoint%20x%3D%22800.5999999999999%22%20y%3D%2242.75999999999999%22%20as%3D%22sourcePoint%22%2F%3E%3CmxPoint%20x%3D%22905%22%20y%3D%22-40.00000000000023%22%20as%3D%22targetPoint%22%2F%3E%3CmxPoint%20as%3D%22offset%22%2F%3E%3C%2FmxGeometry%3E%3C%2FmxCell%3E%3C%2Froot%3E%3C%2FmxGraphModel%3E&lt;/span&gt;" style="edgeLabel;html=1;align=center;verticalAlign=middle;resizable=0;points=[];" parent="1oA8xBJ8QGd1Spcs3NDZ-205" vertex="1" connectable="0">
          <mxGeometry x="-0.1967" relative="1" as="geometry">
            <mxPoint as="offset" />
          </mxGeometry>
        </mxCell>
        <mxCell id="1oA8xBJ8QGd1Spcs3NDZ-207" value="&lt;span style=&quot;color: rgba(0 , 0 , 0 , 0) ; font-family: monospace ; font-size: 0px ; background-color: rgb(248 , 249 , 250)&quot;&gt;%3CmxGraphModel%3E%3Croot%3E%3CmxCell%20id%3D%220%22%2F%3E%3CmxCell%20id%3D%221%22%20parent%3D%220%22%2F%3E%3CmxCell%20id%3D%222%22%20value%3D%22%26%2310%3B%26%2310%3B%26lt%3Bspan%20style%3D%26quot%3Bcolor%3A%20rgb(0%2C%200%2C%200)%3B%20font-family%3A%20helvetica%3B%20font-size%3A%2011px%3B%20font-style%3A%20normal%3B%20font-weight%3A%20400%3B%20letter-spacing%3A%20normal%3B%20text-align%3A%20center%3B%20text-indent%3A%200px%3B%20text-transform%3A%20none%3B%20word-spacing%3A%200px%3B%20background-color%3A%20rgb(255%2C%20255%2C%20255)%3B%20display%3A%20inline%3B%20float%3A%20none%3B%26quot%3B%26gt%3BExtended%20from%20CluStream%26lt%3B%2Fspan%26gt%3B%26%2310%3B%26%2310%3B%22%20style%3D%22edgeStyle%3Dnone%3Brounded%3D1%3Bhtml%3D1%3BlabelBackgroundColor%3Dnone%3BstartArrow%3Dnone%3BstartFill%3D0%3BstartSize%3D5%3BendArrow%3DclassicThin%3BendFill%3D1%3BendSize%3D5%3BjettySize%3Dauto%3BorthogonalLoop%3D1%3BstrokeColor%3D%23B3B3B3%3BstrokeWidth%3D1%3BfontFamily%3DVerdana%3BfontSize%3D12%3BentryX%3D0.5%3BentryY%3D1%3BentryDx%3D0%3BentryDy%3D0%3BexitX%3D0.606%3BexitY%3D-0.112%3BexitDx%3D0%3BexitDy%3D0%3BexitPerimeter%3D0%3B%22%20edge%3D%221%22%20parent%3D%221%22%3E%3CmxGeometry%20x%3D%220.6614%22%20y%3D%22-20%22%20relative%3D%221%22%20as%3D%22geometry%22%3E%3CmxPoint%20x%3D%22800.5999999999999%22%20y%3D%2242.75999999999999%22%20as%3D%22sourcePoint%22%2F%3E%3CmxPoint%20x%3D%22905%22%20y%3D%22-40.00000000000023%22%20as%3D%22targetPoint%22%2F%3E%3CmxPoint%20as%3D%22offset%22%2F%3E%3C%2FmxGeometry%3E%3C%2FmxCell%3E%3C%2Froot%3E%3C%2FmxGraphModel%3E&lt;/span&gt;&lt;span style=&quot;color: rgba(0 , 0 , 0 , 0) ; font-family: monospace ; font-size: 0px ; background-color: rgb(248 , 249 , 250)&quot;&gt;%3CmxGraphModel%3E%3Croot%3E%3CmxCell%20id%3D%220%22%2F%3E%3CmxCell%20id%3D%221%22%20parent%3D%220%22%2F%3E%3CmxCell%20id%3D%222%22%20value%3D%22%26%2310%3B%26%2310%3B%26lt%3Bspan%20style%3D%26quot%3Bcolor%3A%20rgb(0%2C%200%2C%200)%3B%20font-family%3A%20helvetica%3B%20font-size%3A%2011px%3B%20font-style%3A%20normal%3B%20font-weight%3A%20400%3B%20letter-spacing%3A%20normal%3B%20text-align%3A%20center%3B%20text-indent%3A%200px%3B%20text-transform%3A%20none%3B%20word-spacing%3A%200px%3B%20background-color%3A%20rgb(255%2C%20255%2C%20255)%3B%20display%3A%20inline%3B%20float%3A%20none%3B%26quot%3B%26gt%3BExtended%20from%20CluStream%26lt%3B%2Fspan%26gt%3B%26%2310%3B%26%2310%3B%22%20style%3D%22edgeStyle%3Dnone%3Brounded%3D1%3Bhtml%3D1%3BlabelBackgroundColor%3Dnone%3BstartArrow%3Dnone%3BstartFill%3D0%3BstartSize%3D5%3BendArrow%3DclassicThin%3BendFill%3D1%3BendSize%3D5%3BjettySize%3Dauto%3BorthogonalLoop%3D1%3BstrokeColor%3D%23B3B3B3%3BstrokeWidth%3D1%3BfontFamily%3DVerdana%3BfontSize%3D12%3BentryX%3D0.5%3BentryY%3D1%3BentryDx%3D0%3BentryDy%3D0%3BexitX%3D0.606%3BexitY%3D-0.112%3BexitDx%3D0%3BexitDy%3D0%3BexitPerimeter%3D0%3B%22%20edge%3D%221%22%20parent%3D%221%22%3E%3CmxGeometry%20x%3D%220.6614%22%20y%3D%22-20%22%20relative%3D%221%22%20as%3D%22geometry%22%3E%3CmxPoint%20x%3D%22800.5999999999999%22%20y%3D%2242.75999999999999%22%20as%3D%22sourcePoint%22%2F%3E%3CmxPoint%20x%3D%22905%22%20y%3D%22-40.00000000000023%22%20as%3D%22targetPoint%22%2F%3E%3CmxPoint%20as%3D%22offset%22%2F%3E%3C%2FmxGeometry%3E%3C%2FmxCell%3E%3C%2Froot%3E%3C%2FmxGraphModel%3E&lt;/span&gt;" style="edgeLabel;html=1;align=center;verticalAlign=middle;resizable=0;points=[];" parent="1oA8xBJ8QGd1Spcs3NDZ-205" vertex="1" connectable="0">
          <mxGeometry x="-0.2298" y="-1" relative="1" as="geometry">
            <mxPoint as="offset" />
          </mxGeometry>
        </mxCell>
        <mxCell id="1oA8xBJ8QGd1Spcs3NDZ-211" value="&lt;span style=&quot;font-family: &amp;#34;advpcourier&amp;#34; ; font-size: 11.2909px ; text-align: left&quot;&gt;LeaDen-Stream&lt;/span&gt;" style="whiteSpace=wrap;html=1;rounded=1;shadow=1;comic=0;labelBackgroundColor=none;strokeWidth=2;fontFamily=Verdana;fontSize=12;align=center;arcSize=50;" parent="1" vertex="1">
          <mxGeometry x="990" y="-280" width="100" height="20" as="geometry" />
        </mxCell>
        <mxCell id="1oA8xBJ8QGd1Spcs3NDZ-214" value="" style="edgeStyle=none;rounded=1;html=1;labelBackgroundColor=none;startArrow=none;startFill=0;startSize=5;endArrow=classicThin;endFill=1;endSize=5;jettySize=auto;orthogonalLoop=1;strokeColor=#B3B3B3;strokeWidth=1;fontFamily=Verdana;fontSize=12;entryX=0;entryY=0.75;entryDx=0;entryDy=0;exitX=0.75;exitY=0;exitDx=0;exitDy=0;" parent="1" source="2c924340bb9dbf6c-59" target="1oA8xBJ8QGd1Spcs3NDZ-211" edge="1">
          <mxGeometry relative="1" as="geometry">
            <mxPoint x="815" y="-205" as="sourcePoint" />
            <mxPoint x="1210" y="-200" as="targetPoint" />
            <Array as="points" />
          </mxGeometry>
        </mxCell>
        <mxCell id="1oA8xBJ8QGd1Spcs3NDZ-217" value="&lt;p class=&quot;MsoNormal&quot; align=&quot;justify&quot; style=&quot;text-align: justify&quot;&gt;&lt;b style=&quot;font-family: &amp;#34;helvetica&amp;#34; ; text-align: left&quot;&gt;&lt;font face=&quot;Calibri&quot; style=&quot;font-size: 14px&quot;&gt;Graph-based&amp;nbsp;&lt;/font&gt;&lt;/b&gt;&lt;/p&gt;&lt;p class=&quot;MsoNormal&quot; align=&quot;justify&quot; style=&quot;text-align: justify&quot;&gt;&lt;b style=&quot;font-family: &amp;#34;helvetica&amp;#34; ; text-align: left&quot;&gt;&lt;font face=&quot;Calibri&quot; style=&quot;font-size: 14px&quot;&gt;clustering methods&lt;/font&gt;&lt;/b&gt;&lt;br&gt;&lt;/p&gt;" style="ellipse;whiteSpace=wrap;html=1;rounded=1;shadow=1;comic=0;labelBackgroundColor=none;strokeWidth=2;fontFamily=Verdana;fontSize=12;align=center;" parent="1" vertex="1">
          <mxGeometry x="200" y="-262.5" width="140" height="100" as="geometry" />
        </mxCell>
        <mxCell id="1oA8xBJ8QGd1Spcs3NDZ-218" value="" style="edgeStyle=none;rounded=1;html=1;labelBackgroundColor=none;startArrow=none;startFill=0;startSize=5;endArrow=classicThin;endFill=1;endSize=5;jettySize=auto;orthogonalLoop=1;strokeColor=#B3B3B3;strokeWidth=1;fontFamily=Verdana;fontSize=12;exitX=0.033;exitY=0.748;exitDx=0;exitDy=0;entryX=1.009;entryY=0.435;entryDx=0;entryDy=0;exitPerimeter=0;entryPerimeter=0;" parent="1" source="2c924340bb9dbf6c-4" target="1oA8xBJ8QGd1Spcs3NDZ-217" edge="1">
          <mxGeometry relative="1" as="geometry">
            <mxPoint x="460" y="-270" as="sourcePoint" />
            <mxPoint x="200" y="-302.5" as="targetPoint" />
          </mxGeometry>
        </mxCell>
        <mxCell id="1oA8xBJ8QGd1Spcs3NDZ-220" value="&lt;p class=&quot;MsoNormal&quot;&gt;&lt;span style=&quot;font-family: &amp;#34;calibri&amp;#34; ; font-size: 16px ; text-align: left&quot;&gt;G-Stream&lt;/span&gt;&lt;br&gt;&lt;/p&gt;" style="whiteSpace=wrap;html=1;rounded=1;shadow=1;comic=0;labelBackgroundColor=none;strokeWidth=2;fontFamily=Verdana;fontSize=12;align=center;arcSize=50;" parent="1" vertex="1">
          <mxGeometry x="-10" y="-170" width="100" height="20" as="geometry" />
        </mxCell>
        <mxCell id="1oA8xBJ8QGd1Spcs3NDZ-221" value="" style="edgeStyle=none;rounded=1;html=1;labelBackgroundColor=none;startArrow=none;startFill=0;startSize=5;endArrow=classicThin;endFill=1;endSize=5;jettySize=auto;orthogonalLoop=1;strokeColor=#B3B3B3;strokeWidth=1;fontFamily=Verdana;fontSize=12;exitX=0.009;exitY=0.619;exitDx=0;exitDy=0;entryX=1;entryY=0.25;entryDx=0;entryDy=0;exitPerimeter=0;" parent="1" source="1oA8xBJ8QGd1Spcs3NDZ-217" target="1oA8xBJ8QGd1Spcs3NDZ-220" edge="1">
          <mxGeometry relative="1" as="geometry">
            <mxPoint x="463.96000000000004" y="-240.24" as="sourcePoint" />
            <mxPoint x="351.2600000000002" y="-209" as="targetPoint" />
          </mxGeometry>
        </mxCell>
        <mxCell id="4fXkBMkvjMz_6mRudOGy-1" value="&lt;p class=&quot;MsoNormal&quot;&gt;&lt;span style=&quot;font-family: &amp;#34;helvetica&amp;#34; ; text-align: left&quot;&gt;&lt;span style=&quot;font-size: 12pt&quot;&gt;&lt;font face=&quot;Calibri&quot;&gt;FGCH&lt;/font&gt;&lt;/span&gt;&lt;/span&gt;&lt;br&gt;&lt;/p&gt;" style="whiteSpace=wrap;html=1;rounded=1;shadow=1;comic=0;labelBackgroundColor=none;strokeWidth=2;fontFamily=Verdana;fontSize=12;align=center;arcSize=50;" vertex="1" parent="1">
          <mxGeometry x="100" y="170" width="100" height="20" as="geometry" />
        </mxCell>
        <mxCell id="4fXkBMkvjMz_6mRudOGy-2" value="" style="edgeStyle=none;rounded=1;html=1;labelBackgroundColor=none;startArrow=none;startFill=0;startSize=5;endArrow=classicThin;endFill=1;endSize=5;jettySize=auto;orthogonalLoop=1;strokeColor=#B3B3B3;strokeWidth=1;fontFamily=Verdana;fontSize=12;entryX=0.668;entryY=-0.21;entryDx=0;entryDy=0;exitX=0.289;exitY=0.962;exitDx=0;exitDy=0;exitPerimeter=0;entryPerimeter=0;" edge="1" parent="1" source="2c924340bb9dbf6c-67" target="4fXkBMkvjMz_6mRudOGy-1">
          <mxGeometry relative="1" as="geometry">
            <mxPoint x="224.74534478365695" y="47.37267239182847" as="sourcePoint" />
            <mxPoint x="190" y="30" as="targetPoint" />
          </mxGeometry>
        </mxCell>
        <mxCell id="4fXkBMkvjMz_6mRudOGy-7" value="&lt;p class=&quot;MsoNormal&quot;&gt;&lt;span style=&quot;font-family: &amp;#34;advpcourier&amp;#34; ; font-size: 11.2909px ; text-align: left&quot;&gt;PKSStream&lt;/span&gt;&lt;br&gt;&lt;/p&gt;" style="whiteSpace=wrap;html=1;rounded=1;shadow=1;comic=0;labelBackgroundColor=none;strokeWidth=2;fontFamily=Verdana;fontSize=12;align=center;arcSize=50;" vertex="1" parent="1">
          <mxGeometry x="280" y="160" width="100" height="20" as="geometry" />
        </mxCell>
        <mxCell id="4fXkBMkvjMz_6mRudOGy-8" value="" style="edgeStyle=none;rounded=1;html=1;labelBackgroundColor=none;startArrow=none;startFill=0;startSize=5;endArrow=classicThin;endFill=1;endSize=5;jettySize=auto;orthogonalLoop=1;strokeColor=#B3B3B3;strokeWidth=1;fontFamily=Verdana;fontSize=12;entryX=0.5;entryY=0;entryDx=0;entryDy=0;exitX=0.5;exitY=1;exitDx=0;exitDy=0;" edge="1" parent="1" source="2c924340bb9dbf6c-67" target="4fXkBMkvjMz_6mRudOGy-7">
          <mxGeometry relative="1" as="geometry">
            <mxPoint x="250.46000000000004" y="116.57999999999993" as="sourcePoint" />
            <mxPoint x="176.80000000000018" y="175.79999999999995" as="targetPoint" />
          </mxGeometry>
        </mxCell>
        <mxCell id="4fXkBMkvjMz_6mRudOGy-11" value="&lt;div style=&quot;text-align: left&quot;&gt;&lt;span style=&quot;font-family: &amp;#34;advpcourier&amp;#34; ; font-size: 11.2909px&quot;&gt;MuDi-Stream&lt;/span&gt;&lt;br&gt;&lt;/div&gt;" style="whiteSpace=wrap;html=1;rounded=1;shadow=1;comic=0;labelBackgroundColor=none;strokeWidth=2;fontFamily=Verdana;fontSize=12;align=center;arcSize=50;" vertex="1" parent="1">
          <mxGeometry x="1110" y="50" width="100" height="20" as="geometry" />
        </mxCell>
        <mxCell id="4fXkBMkvjMz_6mRudOGy-12" value="" style="edgeStyle=none;rounded=1;html=1;labelBackgroundColor=none;startArrow=none;startFill=0;startSize=5;endArrow=classicThin;endFill=1;endSize=5;jettySize=auto;orthogonalLoop=1;strokeColor=#B3B3B3;strokeWidth=1;fontFamily=Verdana;fontSize=12;exitX=1;exitY=1;exitDx=0;exitDy=0;entryX=0;entryY=0;entryDx=0;entryDy=0;" edge="1" parent="1" source="2c924340bb9dbf6c-7" target="4fXkBMkvjMz_6mRudOGy-11">
          <mxGeometry relative="1" as="geometry">
            <mxPoint x="610" y="-100" as="sourcePoint" />
            <mxPoint x="1120" y="60" as="targetPoint" />
            <Array as="points">
              <mxPoint x="900" y="20" />
            </Array>
          </mxGeometry>
        </mxCell>
        <mxCell id="4fXkBMkvjMz_6mRudOGy-14" value="&lt;p class=&quot;MsoNormal&quot;&gt;&lt;span style=&quot;font-family: &amp;#34;advpcourier&amp;#34; ; font-size: 11.2909px ; text-align: left&quot;&gt;WStream&lt;/span&gt;&lt;br&gt;&lt;/p&gt;" style="whiteSpace=wrap;html=1;rounded=1;shadow=1;comic=0;labelBackgroundColor=none;strokeWidth=2;fontFamily=Verdana;fontSize=12;align=center;arcSize=50;" vertex="1" parent="1">
          <mxGeometry x="-180" y="-310" width="100" height="20" as="geometry" />
        </mxCell>
        <mxCell id="4fXkBMkvjMz_6mRudOGy-15" value="" style="edgeStyle=none;rounded=1;html=1;labelBackgroundColor=none;startArrow=none;startFill=0;startSize=5;endArrow=classicThin;endFill=1;endSize=5;jettySize=auto;orthogonalLoop=1;strokeColor=#B3B3B3;strokeWidth=1;fontFamily=Verdana;fontSize=12;exitX=0.074;exitY=0.789;exitDx=0;exitDy=0;entryX=1;entryY=1;entryDx=0;entryDy=0;exitPerimeter=0;" edge="1" parent="1" source="1oA8xBJ8QGd1Spcs3NDZ-58" target="4fXkBMkvjMz_6mRudOGy-14">
          <mxGeometry relative="1" as="geometry">
            <mxPoint x="60" y="-302.5" as="sourcePoint" />
            <mxPoint x="7.199999999999818" y="-341.10000000000014" as="targetPoint" />
          </mxGeometry>
        </mxCell>
        <mxCell id="4fXkBMkvjMz_6mRudOGy-17" value="&lt;p class=&quot;MsoNormal&quot;&gt;&lt;span style=&quot;font-family: &amp;#34;advpcourier&amp;#34; ; font-size: 11.2909px ; text-align: left&quot;&gt;CluDistream&lt;/span&gt;&lt;br&gt;&lt;/p&gt;" style="whiteSpace=wrap;html=1;rounded=1;shadow=1;comic=0;labelBackgroundColor=none;strokeWidth=2;fontFamily=Verdana;fontSize=12;align=center;arcSize=50;" vertex="1" parent="1">
          <mxGeometry x="-160" y="-250" width="110" height="30" as="geometry" />
        </mxCell>
        <mxCell id="4fXkBMkvjMz_6mRudOGy-18" value="" style="edgeStyle=none;rounded=1;html=1;labelBackgroundColor=none;startArrow=none;startFill=0;startSize=5;endArrow=classicThin;endFill=1;endSize=5;jettySize=auto;orthogonalLoop=1;strokeColor=#B3B3B3;strokeWidth=1;fontFamily=Verdana;fontSize=12;entryX=0.75;entryY=0;entryDx=0;entryDy=0;" edge="1" parent="1" target="4fXkBMkvjMz_6mRudOGy-17">
          <mxGeometry relative="1" as="geometry">
            <mxPoint x="80" y="-274" as="sourcePoint" />
            <mxPoint x="-70" y="-280" as="targetPoint" />
          </mxGeometry>
        </mxCell>
        <mxCell id="4fXkBMkvjMz_6mRudOGy-19" value="&lt;div&gt;&lt;span style=&quot;font-size: 8.4682pt ; font-family: &amp;quot;advpcourier&amp;quot; ; color: rgb(0 , 0 , 0)&quot;&gt;SVStream&lt;/span&gt;&lt;/div&gt;" style="text;whiteSpace=wrap;html=1;" vertex="1" parent="1">
          <mxGeometry x="-220" y="-400" width="80" height="30" as="geometry" />
        </mxCell>
        <mxCell id="4fXkBMkvjMz_6mRudOGy-20" value="&lt;p class=&quot;MsoNormal&quot;&gt;&lt;span style=&quot;font-family: &amp;#34;advpcourier&amp;#34; ; font-size: 11.2909px ; text-align: left&quot;&gt;WStream&lt;/span&gt;&lt;br&gt;&lt;/p&gt;" style="whiteSpace=wrap;html=1;rounded=1;shadow=1;comic=0;labelBackgroundColor=none;strokeWidth=2;fontFamily=Verdana;fontSize=12;align=center;arcSize=50;" vertex="1" parent="1">
          <mxGeometry x="-200" y="-340" width="100" height="20" as="geometry" />
        </mxCell>
        <mxCell id="4fXkBMkvjMz_6mRudOGy-21" value="" style="edgeStyle=none;rounded=1;html=1;labelBackgroundColor=none;startArrow=none;startFill=0;startSize=5;endArrow=classicThin;endFill=1;endSize=5;jettySize=auto;orthogonalLoop=1;strokeColor=#B3B3B3;strokeWidth=1;fontFamily=Verdana;fontSize=12;exitX=0;exitY=0.5;exitDx=0;exitDy=0;entryX=1;entryY=0.5;entryDx=0;entryDy=0;" edge="1" parent="1" source="1oA8xBJ8QGd1Spcs3NDZ-58" target="4fXkBMkvjMz_6mRudOGy-20">
          <mxGeometry relative="1" as="geometry">
            <mxPoint x="60" y="-302.5" as="sourcePoint" />
            <mxPoint x="7.199999999999818" y="-341.10000000000014" as="targetPoint" />
          </mxGeometry>
        </mxCell>
        <mxCell id="4fXkBMkvjMz_6mRudOGy-25" value="&lt;p class=&quot;MsoNormal&quot;&gt;ODAC&lt;br&gt;&lt;/p&gt;" style="whiteSpace=wrap;html=1;rounded=1;shadow=1;comic=0;labelBackgroundColor=none;strokeWidth=2;fontFamily=Verdana;fontSize=12;align=center;arcSize=50;" vertex="1" parent="1">
          <mxGeometry x="550" y="-670" width="100" height="20" as="geometry" />
        </mxCell>
        <mxCell id="4fXkBMkvjMz_6mRudOGy-26" value="" style="edgeStyle=none;rounded=1;html=1;labelBackgroundColor=none;startArrow=none;startFill=0;startSize=5;endArrow=classicThin;endFill=1;endSize=5;jettySize=auto;orthogonalLoop=1;strokeColor=#B3B3B3;strokeWidth=1;fontFamily=Verdana;fontSize=12;entryX=0.5;entryY=1;entryDx=0;entryDy=0;exitX=0.394;exitY=0.023;exitDx=0;exitDy=0;exitPerimeter=0;" edge="1" parent="1" source="2c924340bb9dbf6c-3" target="4fXkBMkvjMz_6mRudOGy-25">
          <mxGeometry relative="1" as="geometry">
            <mxPoint x="600.3207205115059" y="-591.2288896212889" as="sourcePoint" />
            <mxPoint x="493.5416666666665" y="-670.0000000000001" as="targetPoint" />
          </mxGeometry>
        </mxCell>
        <mxCell id="4fXkBMkvjMz_6mRudOGy-28" value="&lt;p class=&quot;MsoNormal&quot;&gt;&lt;font face=&quot;calibri&quot;&gt;&lt;span style=&quot;font-size: 16px&quot;&gt;&lt;b&gt;textClust&lt;/b&gt;&lt;/span&gt;&lt;/font&gt;&lt;/p&gt;" style="whiteSpace=wrap;html=1;rounded=1;shadow=1;comic=0;labelBackgroundColor=none;strokeWidth=2;fontFamily=Verdana;fontSize=12;align=center;arcSize=50;" vertex="1" parent="1">
          <mxGeometry x="410" y="-540" width="100" height="20" as="geometry" />
        </mxCell>
        <mxCell id="4fXkBMkvjMz_6mRudOGy-29" value="&lt;p class=&quot;MsoNormal&quot;&gt;&lt;b&gt;&lt;span&gt;&lt;font face=&quot;Calibri&quot; style=&quot;font-size: 14px&quot;&gt;text clustering&lt;/font&gt;&lt;/span&gt;&lt;/b&gt;&lt;/p&gt;" style="ellipse;whiteSpace=wrap;html=1;rounded=1;shadow=1;comic=0;labelBackgroundColor=none;strokeWidth=2;fontFamily=Verdana;fontSize=12;align=center;" vertex="1" parent="1">
          <mxGeometry x="425" y="-492.5" width="120" height="80" as="geometry" />
        </mxCell>
        <mxCell id="4fXkBMkvjMz_6mRudOGy-30" value="" style="edgeStyle=none;rounded=1;html=1;labelBackgroundColor=none;startArrow=none;startFill=0;startSize=5;endArrow=classicThin;endFill=1;endSize=5;jettySize=auto;orthogonalLoop=1;strokeColor=#B3B3B3;strokeWidth=1;fontFamily=Verdana;fontSize=12;exitX=0.5;exitY=0;exitDx=0;exitDy=0;entryX=0.5;entryY=1;entryDx=0;entryDy=0;" edge="1" parent="1" source="2c924340bb9dbf6c-4" target="4fXkBMkvjMz_6mRudOGy-29">
          <mxGeometry relative="1" as="geometry">
            <Array as="points" />
            <mxPoint x="543.3680973970313" y="-325.26239249297964" as="sourcePoint" />
            <mxPoint x="626.2441801394139" y="-521.1772772741299" as="targetPoint" />
          </mxGeometry>
        </mxCell>
        <mxCell id="4fXkBMkvjMz_6mRudOGy-31" value="" style="edgeStyle=none;rounded=1;html=1;labelBackgroundColor=none;startArrow=none;startFill=0;startSize=5;endArrow=classicThin;endFill=1;endSize=5;jettySize=auto;orthogonalLoop=1;strokeColor=#B3B3B3;strokeWidth=1;fontFamily=Verdana;fontSize=12;exitX=0.343;exitY=0.04;exitDx=0;exitDy=0;entryX=0.5;entryY=1;entryDx=0;entryDy=0;exitPerimeter=0;" edge="1" parent="1" source="4fXkBMkvjMz_6mRudOGy-29" target="4fXkBMkvjMz_6mRudOGy-28">
          <mxGeometry relative="1" as="geometry">
            <Array as="points" />
            <mxPoint x="520" y="-330" as="sourcePoint" />
            <mxPoint x="495" y="-402.5" as="targetPoint" />
          </mxGeometry>
        </mxCell>
      </root>
    </mxGraphModel>
  </diagram>
</mxfile>
